<?xml version="1.0" encoding="UTF-8"?>
<svg version="1.1" xmlns="http://www.w3.org/2000/svg" width="1024" height="1024">
<path d="M0 0 C337.92 0 675.84 0 1024 0 C1024 337.92 1024 675.84 1024 1024 C686.08 1024 348.16 1024 0 1024 C0 686.08 0 348.16 0 0 Z " fill="#000000" transform="translate(0,0)"/>
<path d="M0 0 C1.61124131 -0.00445668 1.61124131 -0.00445668 3.25503296 -0.0090034 C6.8489799 -0.01766449 10.44289343 -0.01919647 14.03684998 -0.02069092 C16.6161201 -0.02532096 19.19538955 -0.03034587 21.7746582 -0.03573608 C28.77909082 -0.04928786 35.7835177 -0.05533934 42.78796124 -0.05974674 C47.16698085 -0.06251481 51.54599828 -0.0667532 55.9250164 -0.07125092 C68.06450671 -0.08344002 80.20399526 -0.09373968 92.34349155 -0.09712601 C93.50776404 -0.09745536 93.50776404 -0.09745536 94.69555717 -0.09779136 C95.47353031 -0.09800964 96.25150345 -0.09822791 97.05305153 -0.09845281 C98.62935674 -0.09889626 100.20566195 -0.09934283 101.78196716 -0.09979248 C102.56385861 -0.10001391 103.34575005 -0.10023534 104.15133517 -0.10046348 C116.80938421 -0.10440813 129.46737556 -0.12185357 142.12540234 -0.145152 C155.14117667 -0.16891423 168.15692211 -0.18133009 181.17271847 -0.18249393 C188.4725035 -0.18340801 195.77221338 -0.18909277 203.07197762 -0.20731354 C209.94287158 -0.22440413 216.81362119 -0.22593087 223.68453026 -0.21717453 C226.19908658 -0.21640621 228.71365067 -0.22071972 231.22818756 -0.23063278 C251.98833526 -0.30764171 271.29748501 0.29878271 287.22996521 15.39044189 C298.36680139 27.34616309 302.39068547 40.9840999 302.36367798 56.98193359 C302.36594353 57.96822416 302.36820909 58.95451472 302.3705433 59.97069287 C302.37686949 63.27305604 302.37605482 66.57537803 302.37522888 69.87774658 C302.37822125 72.24661309 302.38162396 74.61547911 302.38540649 76.98434448 C302.39424322 83.41834233 302.39658449 89.85232689 302.39722228 96.28633022 C302.39771669 100.30700984 302.40000368 104.32768713 302.4027195 108.34836578 C302.41152344 121.65394385 302.41613935 134.95951385 302.41538902 148.26509485 C302.41532909 149.34034476 302.41532909 149.34034476 302.41526794 150.43731689 C302.41522706 151.15502956 302.41518618 151.87274222 302.41514406 152.61220375 C302.41473779 164.23836167 302.42430326 175.86448717 302.43840631 187.49063572 C302.45278613 199.43962739 302.45967559 211.38860327 302.45881253 223.33760381 C302.45848109 230.04145781 302.46140055 236.74527275 302.47199059 243.44911957 C302.48168155 249.75609477 302.48174382 256.0629983 302.47447395 262.36997604 C302.47342933 264.68141408 302.47578373 266.9928566 302.48183441 269.30428696 C302.4895746 272.46661365 302.48489599 275.62869407 302.47720337 278.79101562 C302.48491871 280.15359816 302.48491871 280.15359816 302.49278992 281.54370761 C302.41120953 296.78535435 297.2317096 310.03881846 286.52684021 321.03106689 C282.96189703 324.30499431 279.47014546 326.81483556 275.22996521 329.14044189 C274.30222825 329.65336698 273.37449129 330.16629206 272.41864109 330.69476032 C259.80070141 336.67693617 247.04104783 335.97890781 233.32151794 335.90093994 C230.61296441 335.90413557 227.90446672 335.91628661 225.19593811 335.92793274 C218.63384988 335.95063096 212.07219056 335.94136244 205.51011138 335.92043187 C200.1725529 335.90407796 194.83511064 335.89996532 189.49752998 335.90439796 C188.35347909 335.90534398 188.35347909 335.90534398 187.18631606 335.9063091 C185.63641028 335.9076553 184.08650453 335.90903487 182.53659881 335.91044746 C168.03989599 335.92235375 153.54342704 335.89839638 139.04677743 335.86142937 C126.63420588 335.83053474 114.22190314 335.82817198 101.80931091 335.847229 C87.35925225 335.86938892 72.90934394 335.87544252 58.45927769 335.85490638 C56.91571337 335.85274367 55.37214903 335.85059457 53.82858467 335.84845924 C53.06932091 335.84739288 52.31005715 335.84632651 51.5277854 335.84522783 C46.20215486 335.83878459 40.87660227 335.84349521 35.55097771 335.85248375 C29.052946 335.86306779 22.55522845 335.85536465 16.05725437 335.82502797 C12.74787973 335.80999829 9.43940613 335.80532996 6.1299572 335.81721878 C-12.97851141 335.878301 -28.69363628 334.54696633 -43.75831604 321.40606689 C-58.74024338 305.85941058 -59.21634727 285.8568981 -59.15821838 265.66192627 C-59.16228823 263.28556579 -59.16763242 260.9092072 -59.17414856 258.53285217 C-59.18777871 252.10522854 -59.18254122 245.67775002 -59.1730113 239.25012398 C-59.16766114 235.22972697 -59.16869006 231.2093483 -59.17148209 227.18894958 C-59.17194179 226.51962736 -59.17240148 225.85030513 -59.17287511 225.16070041 C-59.17383438 223.80059659 -59.17480702 222.44049277 -59.17579289 221.08038896 C-59.18432879 208.35405729 -59.174541 195.62779065 -59.15839179 182.90146965 C-59.14499023 172.0033927 -59.14731883 161.10541165 -59.16114807 150.20733643 C-59.17723579 137.52369756 -59.18350499 124.84011556 -59.17431128 112.15646791 C-59.17335573 110.80162335 -59.17241261 109.44677878 -59.17148209 108.0919342 C-59.17101926 107.42548381 -59.17055643 106.75903341 -59.17007958 106.07238755 C-59.16749925 101.39658412 -59.17198817 96.72082796 -59.17892075 92.04502869 C-59.187615 85.74120732 -59.18152346 79.43756625 -59.16423798 73.13376427 C-59.16028628 70.82639044 -59.16138448 68.51900133 -59.16802597 66.21163368 C-59.21994891 46.33327294 -57.56250984 30.05314718 -43.50440979 14.68731689 C-41.77003479 13.14044189 -41.77003479 13.14044189 -39.77003479 13.14044189 C-39.77003479 12.48044189 -39.77003479 11.82044189 -39.77003479 11.14044189 C-37.23084473 9.84370588 -34.68889241 8.55296353 -32.14503479 7.26544189 C-31.43218323 6.90063721 -30.71933167 6.53583252 -29.98487854 6.15997314 C-19.94883242 1.09591318 -11.09896719 -0.00964338 0 0 Z " fill="#000000" transform="translate(379.77003479003906,174.85955810546875)"/>
<path d="M0 0 C1.61124131 -0.00445668 1.61124131 -0.00445668 3.25503296 -0.0090034 C6.8489799 -0.01766449 10.44289343 -0.01919647 14.03684998 -0.02069092 C16.6161201 -0.02532096 19.19538955 -0.03034587 21.7746582 -0.03573608 C28.77909082 -0.04928786 35.7835177 -0.05533934 42.78796124 -0.05974674 C47.16698085 -0.06251481 51.54599828 -0.0667532 55.9250164 -0.07125092 C68.06450671 -0.08344002 80.20399526 -0.09373968 92.34349155 -0.09712601 C93.50776404 -0.09745536 93.50776404 -0.09745536 94.69555717 -0.09779136 C95.47353031 -0.09800964 96.25150345 -0.09822791 97.05305153 -0.09845281 C98.62935674 -0.09889626 100.20566195 -0.09934283 101.78196716 -0.09979248 C102.56385861 -0.10001391 103.34575005 -0.10023534 104.15133517 -0.10046348 C116.80938421 -0.10440813 129.46737556 -0.12185357 142.12540234 -0.145152 C155.14117667 -0.16891423 168.15692211 -0.18133009 181.17271847 -0.18249393 C188.4725035 -0.18340801 195.77221338 -0.18909277 203.07197762 -0.20731354 C209.94287158 -0.22440413 216.81362119 -0.22593087 223.68453026 -0.21717453 C226.19908658 -0.21640621 228.71365067 -0.22071972 231.22818756 -0.23063278 C251.98833526 -0.30764171 271.29748501 0.29878271 287.22996521 15.39044189 C298.36680139 27.34616309 302.39068547 40.9840999 302.36367798 56.98193359 C302.36594353 57.96822416 302.36820909 58.95451472 302.3705433 59.97069287 C302.37686949 63.27305604 302.37605482 66.57537803 302.37522888 69.87774658 C302.37822125 72.24661309 302.38162396 74.61547911 302.38540649 76.98434448 C302.39424322 83.41834233 302.39658449 89.85232689 302.39722228 96.28633022 C302.39771669 100.30700984 302.40000368 104.32768713 302.4027195 108.34836578 C302.41152344 121.65394385 302.41613935 134.95951385 302.41538902 148.26509485 C302.41532909 149.34034476 302.41532909 149.34034476 302.41526794 150.43731689 C302.41522706 151.15502956 302.41518618 151.87274222 302.41514406 152.61220375 C302.41473779 164.23836167 302.42430326 175.86448717 302.43840631 187.49063572 C302.45278613 199.43962739 302.45967559 211.38860327 302.45881253 223.33760381 C302.45848109 230.04145781 302.46140055 236.74527275 302.47199059 243.44911957 C302.48168155 249.75609477 302.48174382 256.0629983 302.47447395 262.36997604 C302.47342933 264.68141408 302.47578373 266.9928566 302.48183441 269.30428696 C302.4895746 272.46661365 302.48489599 275.62869407 302.47720337 278.79101562 C302.48491871 280.15359816 302.48491871 280.15359816 302.49278992 281.54370761 C302.41120953 296.78535435 297.2317096 310.03881846 286.52684021 321.03106689 C282.96189703 324.30499431 279.47014546 326.81483556 275.22996521 329.14044189 C274.30222825 329.65336698 273.37449129 330.16629206 272.41864109 330.69476032 C259.80070141 336.67693617 247.04104783 335.97890781 233.32151794 335.90093994 C230.61296441 335.90413557 227.90446672 335.91628661 225.19593811 335.92793274 C218.63384988 335.95063096 212.07219056 335.94136244 205.51011138 335.92043187 C200.1725529 335.90407796 194.83511064 335.89996532 189.49752998 335.90439796 C188.35347909 335.90534398 188.35347909 335.90534398 187.18631606 335.9063091 C185.63641028 335.9076553 184.08650453 335.90903487 182.53659881 335.91044746 C168.03989599 335.92235375 153.54342704 335.89839638 139.04677743 335.86142937 C126.63420588 335.83053474 114.22190314 335.82817198 101.80931091 335.847229 C87.35925225 335.86938892 72.90934394 335.87544252 58.45927769 335.85490638 C56.91571337 335.85274367 55.37214903 335.85059457 53.82858467 335.84845924 C53.06932091 335.84739288 52.31005715 335.84632651 51.5277854 335.84522783 C46.20215486 335.83878459 40.87660227 335.84349521 35.55097771 335.85248375 C29.052946 335.86306779 22.55522845 335.85536465 16.05725437 335.82502797 C12.74787973 335.80999829 9.43940613 335.80532996 6.1299572 335.81721878 C-12.97851141 335.878301 -28.69363628 334.54696633 -43.75831604 321.40606689 C-58.74024338 305.85941058 -59.21634727 285.8568981 -59.15821838 265.66192627 C-59.16228823 263.28556579 -59.16763242 260.9092072 -59.17414856 258.53285217 C-59.18777871 252.10522854 -59.18254122 245.67775002 -59.1730113 239.25012398 C-59.16766114 235.22972697 -59.16869006 231.2093483 -59.17148209 227.18894958 C-59.17194179 226.51962736 -59.17240148 225.85030513 -59.17287511 225.16070041 C-59.17383438 223.80059659 -59.17480702 222.44049277 -59.17579289 221.08038896 C-59.18432879 208.35405729 -59.174541 195.62779065 -59.15839179 182.90146965 C-59.14499023 172.0033927 -59.14731883 161.10541165 -59.16114807 150.20733643 C-59.17723579 137.52369756 -59.18350499 124.84011556 -59.17431128 112.15646791 C-59.17335573 110.80162335 -59.17241261 109.44677878 -59.17148209 108.0919342 C-59.17101926 107.42548381 -59.17055643 106.75903341 -59.17007958 106.07238755 C-59.16749925 101.39658412 -59.17198817 96.72082796 -59.17892075 92.04502869 C-59.187615 85.74120732 -59.18152346 79.43756625 -59.16423798 73.13376427 C-59.16028628 70.82639044 -59.16138448 68.51900133 -59.16802597 66.21163368 C-59.21994891 46.33327294 -57.56250984 30.05314718 -43.50440979 14.68731689 C-41.77003479 13.14044189 -41.77003479 13.14044189 -39.77003479 13.14044189 C-39.77003479 12.48044189 -39.77003479 11.82044189 -39.77003479 11.14044189 C-37.23084473 9.84370588 -34.68889241 8.55296353 -32.14503479 7.26544189 C-31.43218323 6.90063721 -30.71933167 6.53583252 -29.98487854 6.15997314 C-19.94883242 1.09591318 -11.09896719 -0.00964338 0 0 Z M-30.39112854 34.24981689 C-35.658093 41.77766058 -37.06800136 47.93909219 -37.05091858 57.00643921 C-37.05686082 57.99540219 -37.06280307 58.98436517 -37.06892538 60.00329673 C-37.0862587 63.31483395 -37.08931239 66.62622621 -37.09230042 69.93780518 C-37.10155971 72.31328133 -37.11160943 74.68875451 -37.12239075 77.06422424 C-37.14861579 83.51694298 -37.16159846 89.96963403 -37.17041206 96.42239618 C-37.17594672 100.45582636 -37.18442325 104.48924701 -37.19342041 108.52267075 C-37.21779951 119.70220143 -37.23839876 130.88172452 -37.24517059 142.0612812 C-37.24560973 142.77618127 -37.24604886 143.49108133 -37.2465013 144.22764503 C-37.24693785 144.94420328 -37.24737441 145.66076153 -37.24782419 146.39903367 C-37.24871111 147.85092235 -37.24960423 149.30281103 -37.25050354 150.75469971 C-37.2509464 151.47487836 -37.25138926 152.19505702 -37.25184554 152.93705927 C-37.25973579 164.59753371 -37.2946289 176.25775775 -37.34122258 187.91813554 C-37.38873423 199.90556491 -37.41357815 211.89286886 -37.41590643 223.88039386 C-37.41773534 230.60457034 -37.42976595 237.32837107 -37.46554565 244.05246353 C-37.49856538 250.38094949 -37.50279035 256.7088177 -37.48526764 263.03735924 C-37.48372994 265.35442322 -37.49237232 267.67152081 -37.51218414 269.9885006 C-37.78431367 288.76494827 -37.78431367 288.76494827 -28.52550507 304.60475349 C-22.08434979 310.94830939 -14.25772634 314.26102473 -5.1928215 314.26907635 C-4.27365786 314.27230079 -3.35449422 314.27552524 -2.40747714 314.2788474 C-0.89816052 314.27652449 -0.89816052 314.27652449 0.64164734 314.27415466 C1.71339478 314.27642022 2.78514223 314.27868578 3.88936687 314.28101999 C7.49281935 314.28736724 11.0962343 314.28653015 14.69969177 314.28570557 C17.27840219 314.28869663 19.85711216 314.29209904 22.43582153 314.29588318 C28.72119813 314.30419134 35.00656535 314.30693811 41.29194698 314.30749556 C46.40191061 314.30797072 51.51187115 314.31002547 56.6218338 314.31319618 C71.11144744 314.32200384 85.60105368 314.32661548 100.09067002 314.32586571 C101.26249467 314.32580577 101.26249467 314.32580577 102.45799255 314.32574463 C103.24016375 314.32570375 104.02233494 314.32566287 104.8282083 314.32562075 C117.50018737 314.32521443 130.17213671 314.33478012 142.84410718 314.348883 C155.85749737 314.36325145 168.87087306 314.37015289 181.88427138 314.36928922 C189.18947972 314.36895737 196.4946569 314.37169898 203.79985809 314.38246727 C210.67149247 314.39253152 217.54306003 314.39223207 224.41469765 314.38495064 C226.93660643 314.3839039 229.45851929 314.38627293 231.98042107 314.3923111 C235.42380782 314.40002137 238.86696671 314.39539235 242.31034851 314.38768005 C243.3076367 314.39282362 244.30492489 314.39796718 245.33243394 314.40326661 C255.92120749 314.35088291 265.35718581 311.98859749 273.09324646 304.28497314 C279.18214207 296.71540317 280.68117252 288.53515432 280.61764526 279.02084351 C280.6230308 278.04086234 280.62841634 277.06088117 280.63396508 276.05120361 C280.64820081 272.78801363 280.64115165 269.52523181 280.63401794 266.26202393 C280.63972381 263.91403885 280.6466889 261.56605655 280.65481567 259.21807861 C280.67273864 252.85439947 280.6715802 246.49085829 280.66587329 240.1271615 C280.66238832 234.1356383 280.67034863 228.14413204 280.67723394 222.1526141 C280.69094394 209.56033693 280.685532 196.96812199 280.67404873 184.37584625 C280.66411921 172.87337064 280.67705476 161.37105595 280.70098292 149.86860515 C280.72540667 138.03815057 280.73497368 126.20777084 280.72833019 114.37729156 C280.72484507 107.7432886 280.72736068 101.10939348 280.74458122 94.47540665 C280.76007198 88.23560899 280.75607073 81.99611804 280.73727608 75.7563324 C280.73359609 73.47111443 280.73668136 71.18587363 280.74716187 68.90067673 C280.81175666 53.64740029 280.73006273 41.78459171 269.60887146 30.24200439 C264.08154764 25.35908121 257.93853863 23.02255714 250.59866238 23.00622082 C249.66741525 23.00176297 248.73616813 22.99730513 247.77670139 22.9927122 C246.75697288 22.99289656 245.73724437 22.99308092 244.68661499 22.99327087 C243.60065003 22.98959419 242.51468508 22.9859175 241.39581209 22.9821294 C237.74408951 22.97108544 234.09239537 22.96724748 230.44065857 22.96343994 C227.82740692 22.9571758 225.21415615 22.95052904 222.60090637 22.94352722 C214.74928616 22.92377656 206.89766468 22.91369788 199.04602584 22.90479943 C195.34607776 22.9004138 191.64613111 22.89504766 187.94618416 22.88981056 C175.64210654 22.87279885 163.3380298 22.85830585 151.03394222 22.85106182 C147.84187761 22.84915201 144.649813 22.84723166 141.45774841 22.84527588 C140.66440169 22.84479214 139.87105497 22.8443084 139.05366743 22.84381 C126.20908697 22.83551409 113.36459976 22.81018437 100.52006 22.7776952 C87.32472358 22.74459162 74.12943449 22.72661004 60.93405634 22.72341758 C53.52866079 22.72125541 46.12340119 22.71255001 38.71804619 22.68695641 C31.74867962 22.66292492 24.77956106 22.65944443 17.81016159 22.66971779 C15.25564193 22.67021316 12.70111023 22.66389244 10.14662743 22.65016174 C6.65152705 22.63243009 3.15730253 22.63955638 -0.33779907 22.6526947 C-1.34191253 22.64172546 -2.34602599 22.63075621 -3.38056713 22.61945456 C-13.91971906 22.71469964 -23.76117511 25.62288954 -30.39112854 34.24981689 Z " fill="#00ADC0" transform="translate(379.77003479003906,174.85955810546875)"/>
<path d="M0 0 C1.088004 -0.00637985 2.176008 -0.0127597 3.29698181 -0.01933289 C4.4720076 -0.02044571 5.64703339 -0.02155853 6.85766602 -0.02270508 C8.66824242 -0.02769768 8.66824242 -0.02769768 10.51539612 -0.03279114 C13.06999327 -0.03785735 15.62459705 -0.04019956 18.17919922 -0.04003906 C22.09231436 -0.04222557 26.00514766 -0.06038491 29.91821289 -0.0793457 C32.39802963 -0.08227964 34.87784772 -0.08426443 37.35766602 -0.08520508 C38.53066757 -0.09239059 39.70366913 -0.09957611 40.91221619 -0.10697937 C42.00337234 -0.10390274 43.0945285 -0.10082611 44.21875 -0.09765625 C45.17788803 -0.09908127 46.13702606 -0.10050629 47.12522888 -0.10197449 C49.84288465 0.1616385 51.41080832 0.63285475 53.67407227 2.14526367 C57.60200461 8.63091941 59.45022478 15.61828948 61.42407227 22.89526367 C61.73989258 24.01803711 62.05571289 25.14081055 62.38110352 26.29760742 C64.67407227 34.60589679 64.67407227 34.60589679 64.67407227 39.14526367 C66.50494385 39.09982422 66.50494385 39.09982422 68.37280273 39.0534668 C104.66478893 38.18687326 140.96210974 37.9831203 177.26324463 37.91308594 C182.50462361 37.90268599 187.7459069 37.88521173 192.98724365 37.86181641 C199.26161975 37.83440741 205.53585136 37.82210297 211.81028557 37.82118988 C214.16044184 37.81850594 216.51059826 37.81072306 218.86071968 37.79764557 C222.10523061 37.78065611 225.349213 37.78237036 228.59375 37.78881836 C229.5476103 37.77960106 230.5014706 37.77038376 231.48423576 37.76088715 C236.35014158 37.79172121 239.78818875 37.88218089 243.67407227 41.14526367 C246.3858455 44.01216202 247.06046632 45.86415632 246.95556641 49.78393555 C246.79370112 54.91997573 246.08498058 59.87700144 245.17016602 64.92651367 C245.01160126 65.84259903 244.8530365 66.75868439 244.68966675 67.70252991 C244.17176895 70.68492902 243.64217915 73.66510158 243.11157227 76.64526367 C242.37164476 80.85178035 241.63598971 85.05903931 240.90063477 89.26635742 C240.71344376 90.33232651 240.52625275 91.39829559 240.33338928 92.49656677 C239.06267096 99.77562845 237.88557165 107.06512938 236.76000977 114.36791992 C236.31142314 117.23181316 235.86170374 120.09552689 235.41189575 122.95922852 C235.13014349 124.7799744 234.85504905 126.60176402 234.58688354 128.42456055 C234.21293869 130.96083633 233.81513085 133.49233752 233.41235352 136.02416992 C233.31042694 136.7627272 233.20850037 137.50128448 233.10348511 138.26222229 C232.20428278 143.69719207 230.49009567 146.36380634 226.67407227 150.14526367 C223.42520725 152.20153004 220.8787769 152.39285606 217.06793213 152.38577271 C215.92652267 152.38852203 214.78511322 152.39127136 213.6091156 152.394104 C211.7371627 152.38331818 211.7371627 152.38331818 209.82739258 152.37231445 C208.51007645 152.37260651 207.19276031 152.37289856 205.83552551 152.37319946 C202.22631874 152.37377327 198.61724492 152.36201442 195.00806904 152.34805155 C191.2351022 152.33554891 187.46213231 152.33437406 183.68914795 152.33200073 C176.54585116 152.32578459 169.4026156 152.30937196 162.25934577 152.28930175 C154.12640548 152.26694693 145.99346227 152.25595037 137.86049891 152.24591088 C121.13165419 152.22500585 104.40287104 152.18982727 87.67407227 152.14526367 C87.34407227 153.13526367 87.01407227 154.12526367 86.67407227 155.14526367 C84.96704102 156.82885742 84.96704102 156.82885742 82.86157227 158.58276367 C79.9910094 160.9901588 77.31039171 163.48345257 74.67407227 166.14526367 C75.37975657 166.14765203 76.08544086 166.15004038 76.81250954 166.15250111 C93.98913995 166.21165585 111.16561996 166.28720894 128.34209633 166.38097858 C136.64854285 166.42593025 144.95494655 166.46534636 153.26147461 166.49169922 C160.50206193 166.51468441 167.74251369 166.54808822 174.98299348 166.59396523 C178.81623426 166.61789051 182.64934084 166.6366238 186.48265457 166.64287758 C190.09260221 166.64893165 193.70220651 166.66894275 197.31202698 166.69953918 C199.26460779 166.71249038 201.21726884 166.71075035 203.16989136 166.70854187 C213.95607133 166.82418969 213.95607133 166.82418969 218.67407227 170.14526367 C220.70331603 172.43634535 221.61782042 173.98975709 221.76782227 177.07104492 C221.50796713 180.5206219 220.78327726 182.93595409 219.17407227 186.02026367 C212.56451927 191.63838372 202.10191146 190.43023011 193.92773438 190.40405273 C192.56009231 190.40676778 191.19245171 190.41033159 189.82481384 190.41467285 C186.13480773 190.42373721 182.44491432 190.42027759 178.75490642 190.41391468 C174.88026693 190.40882471 171.0056366 190.41355433 167.1309967 190.41668701 C160.62735271 190.42031752 154.12375426 190.41555118 147.62011719 190.40600586 C140.11571161 190.39511848 132.61141469 190.39865262 125.10701174 190.40965867 C118.64645205 190.4187522 112.18592495 190.42000687 105.72536093 190.41478133 C101.87430737 190.41167357 98.02330479 190.41121943 94.17225456 190.41785431 C90.55161673 190.42365745 86.93111825 190.41957694 83.31049538 190.4080658 C81.35834568 190.40418653 79.4061841 190.41007916 77.45404053 190.4163208 C68.61850545 190.37394794 58.65934517 190.16556191 52.00610352 183.46557617 C47.41493213 178.20917568 45.90099955 174.68590696 45.94360352 167.57104492 C47.27923677 161.30713922 51.83719109 157.14080835 56.18139648 152.68383789 C58.41638053 150.3801301 60.53865506 147.9785118 62.67407227 145.58276367 C63.37532227 144.81834961 64.07657227 144.05393555 64.79907227 143.26635742 C65.41782227 142.56639648 66.03657227 141.86643555 66.67407227 141.14526367 C67.27864258 140.53682617 67.88321289 139.92838867 68.50610352 139.30151367 C70.3163218 135.95957222 69.31484855 133.83315805 68.36157227 130.20776367 C68.17570557 129.48395508 67.98983887 128.76014648 67.79833984 128.0144043 C67.11331957 125.38469799 66.39500842 122.76534908 65.67407227 120.14526367 C65.38532227 119.07904785 65.09657227 118.01283203 64.79907227 116.91430664 C62.79902884 109.53185469 60.75723634 102.16159812 58.69555664 94.79614258 C57.74151649 91.38631553 56.79278644 87.97506482 55.84594727 84.56323242 C52.99332291 74.30254979 50.09038465 64.05755997 47.11157227 53.83276367 C46.85496826 52.95193115 46.59836426 52.07109863 46.33398438 51.16357422 C43.49748224 41.47592301 40.58051486 31.81210549 37.67407227 22.14526367 C36.36736572 22.14115479 35.06065918 22.1370459 33.71435547 22.1328125 C28.85913832 22.11101563 24.00473093 22.05671965 19.14990234 21.99267578 C17.05004648 21.96950071 14.95007447 21.95510123 12.85009766 21.94970703 C9.82844702 21.94041404 6.8086221 21.89941521 3.78735352 21.85229492 C2.85071365 21.85622757 1.91407379 21.86016022 0.9490509 21.86421204 C-3.65385454 21.76152983 -5.67812346 21.65580949 -9.39550781 18.72607422 C-12.7235709 14.27673125 -13.04595104 10.61354881 -12.32592773 5.14526367 C-8.96631001 0.51130819 -5.46530364 0.02173819 0 0 Z " fill="#00B0C2" transform="translate(385.325927734375,231.854736328125)"/>
<path d="M0 0 C11.27703942 10.72301688 18.45265786 25.43622953 19.0246582 41.14550781 C19.04427445 42.66461185 19.05258924 44.18389539 19.05078125 45.703125 C19.05506638 46.52520447 19.0593515 47.34728394 19.06376648 48.1942749 C19.06946847 49.92198778 19.07004083 51.64972464 19.06567383 53.37744141 C19.0625243 55.97992279 19.08598864 58.58125313 19.11132812 61.18359375 C19.18843296 81.34259787 14.86962746 98.08770265 0.65625 112.9375 C-10.78969549 123.88579569 -26.31195065 128.81699728 -41.9375 129.1875 C-57.28599387 128.70382897 -71.72155775 124.02971349 -83.25 113.75 C-83.86488281 113.22792969 -84.47976563 112.70585938 -85.11328125 112.16796875 C-98.60396854 99.87379475 -102.08432949 81.68808522 -103.14794922 64.25292969 C-104.02345646 42.77996273 -101.22047121 21.20669929 -86.9375 4.375 C-64.18637016 -19.25558528 -25.03777468 -21.31594331 0 0 Z " fill="#0098D9" transform="translate(550.25,557.25)"/>
<path d="M0 0 C1.6739106 -0.00956978 1.6739106 -0.00956978 3.38163757 -0.01933289 C4.60123672 -0.02044571 5.82083588 -0.02155853 7.07739258 -0.02270508 C8.33014481 -0.02603348 9.58289703 -0.02936188 10.87361145 -0.03279114 C13.53947467 -0.03787031 16.20523617 -0.04063013 18.87109375 -0.04003906 C21.58177458 -0.03995846 24.2922841 -0.04678809 27.00292969 -0.06054688 C30.9236358 -0.07905324 34.84414686 -0.08378508 38.76489258 -0.08520508 C39.95817673 -0.09239059 41.15146088 -0.09957611 42.38090515 -0.10697937 C59.58123452 -0.06123799 75.77880314 2.29320978 88.46411133 14.80151367 C96.27493377 23.35067256 99.18428186 33.41174235 99.15942383 44.83276367 C99.1578125 45.61369385 99.15620117 46.39462402 99.15454102 47.19921875 C99.00587478 54.31406419 97.52285981 60.56156741 94.78442383 67.14526367 C94.36870117 68.17006836 94.36870117 68.17006836 93.94458008 69.21557617 C89.44112175 78.47153199 80.09252198 83.83766677 70.78442383 87.14526367 C60.32051105 90.11981111 50.71289601 90.52397058 39.90942383 90.33276367 C34.91817383 90.27088867 29.92692383 90.20901367 24.78442383 90.14526367 C24.78442383 105.32526367 24.78442383 120.50526367 24.78442383 136.14526367 C14.55442383 136.14526367 4.32442383 136.14526367 -6.21557617 136.14526367 C-6.23812268 118.56071951 -6.25655504 100.97618762 -6.26738834 83.39163303 C-6.27255143 75.22739203 -6.27959437 67.06316063 -6.29101562 58.89892578 C-6.30096208 51.78555083 -6.30742951 44.67218283 -6.30966467 37.55880111 C-6.31097184 33.79000644 -6.31405811 30.02123164 -6.32130623 26.25244331 C-6.32931933 22.05207551 -6.32956734 17.8517426 -6.32910156 13.65136719 C-6.33269684 12.39261276 -6.33629211 11.13385834 -6.33999634 9.83695984 C-6.33862167 8.69967438 -6.33724701 7.56238892 -6.33583069 6.39064026 C-6.33675248 5.39602563 -6.33767427 4.401411 -6.338624 3.37665653 C-6.10373116 -0.88297343 -3.71165246 0.01435017 0 0 Z " fill="#008EE1" transform="translate(331.215576171875,545.854736328125)"/>
<path d="M0 0 C50.49 0 100.98 0 153 0 C150.70263987 18.37888107 150.70263987 18.37888107 149.5625 24.796875 C149.43689697 25.52263733 149.31129395 26.24839966 149.18188477 26.99615479 C148.79143 29.24806441 148.39593295 31.49904788 148 33.75 C147.73662252 35.26165665 147.47360088 36.77337535 147.2109375 38.28515625 C146.82770774 40.49046934 146.44424469 42.69573783 146.05932617 44.90075684 C145.00775425 50.92862944 143.99602901 56.96270596 143 63 C142.67 64.98 142.34 66.96 142 69 C101.41 69 60.82 69 19 69 C12.65598458 46.00294411 6.32558626 23.00213185 0 0 Z " fill="#000000" transform="translate(456,293)"/>
<path d="M0 0 C7.01728875 5.33044049 10.85838896 14.27438562 13.59375 22.48046875 C13.59375 25.45046875 13.59375 28.42046875 13.59375 31.48046875 C3.69375 31.48046875 -6.20625 31.48046875 -16.40625 31.48046875 C-17.39625 28.51046875 -18.38625 25.54046875 -19.40625 22.48046875 C-20.71655998 20.17313597 -20.71655998 20.17313597 -22.28125 18.54296875 C-22.75304687 17.99769531 -23.22484375 17.45242188 -23.7109375 16.890625 C-29.74070054 11.87508478 -38.04685409 12.84832552 -45.40625 13.48046875 C-49.57416155 14.61605584 -52.41578102 16.42809546 -55.40625 19.60546875 C-57.24440247 24.89015709 -57.48220533 30.1748502 -55.09375 35.29296875 C-47.91133123 41.13912356 -38.30532721 43.62522653 -29.59375 46.35546875 C-13.42721481 51.6034723 3.22089613 57.62035132 11.59375 73.48046875 C16.08138711 82.84671135 15.77563919 93.71409211 12.59375 103.48046875 C9.10148911 113.26265808 1.97700984 120.59244668 -7.09375 125.41796875 C-24.67329478 133.69875392 -45.69445658 133.9108121 -63.94921875 127.6015625 C-73.63457736 123.61739605 -82.93655928 117.48312723 -87.69140625 107.88671875 C-89.98179427 102.30441103 -91.54915804 97.35484124 -91.53125 91.29296875 C-91.53382813 90.41253906 -91.53640625 89.53210938 -91.5390625 88.625 C-91.40625 86.48046875 -91.40625 86.48046875 -90.40625 85.48046875 C-88.33362924 85.39279763 -86.25804706 85.37351002 -84.18359375 85.3828125 C-82.29350586 85.38764648 -82.29350586 85.38764648 -80.36523438 85.39257812 C-79.02473891 85.40093472 -77.68424412 85.40939968 -76.34375 85.41796875 C-74.99935058 85.42298215 -73.6549494 85.42754533 -72.31054688 85.43164062 C-69.00907059 85.44347387 -65.70768197 85.45995904 -62.40625 85.48046875 C-62.08011719 86.31046387 -61.75398437 87.14045898 -61.41796875 87.99560547 C-60.98097656 89.08115723 -60.54398438 90.16670898 -60.09375 91.28515625 C-59.66449219 92.36265137 -59.23523438 93.44014648 -58.79296875 94.55029297 C-56.56009835 99.26841101 -53.83488978 101.36206993 -49.08203125 103.55078125 C-40.06966697 106.68208446 -31.75012539 105.59785334 -23.09375 102.16796875 C-19.95398755 100.19649001 -18.80754817 98.90586428 -17.40625 95.48046875 C-16.8572152 90.35614391 -17.46154663 87.65251028 -20.40625 83.48046875 C-27.05829459 77.97227881 -35.48088529 75.45722825 -43.55493164 72.78405762 C-78.79549547 61.05478601 -78.79549547 61.05478601 -86.28125 46.23046875 C-90.67081074 35.53273131 -89.81179527 25.43438756 -86.40625 14.48046875 C-80.78743712 2.5015748 -71.58335622 -4.75200967 -59.40625 -9.51953125 C-39.09376704 -15.42717455 -17.58154885 -11.10263393 0 0 Z " fill="#009ED5" transform="translate(672.40625,554.51953125)"/>
<path d="M0 0 C70.25 0 70.25 0 84 10 C85.2375 10.804375 85.2375 10.804375 86.5 11.625 C95.58997312 20.26047446 97.92621802 31.61029838 98.3125 43.625 C98.17014814 55.82843646 94.4574674 66.08614313 86 75 C73.61950814 85.50288172 59.06769522 86.61008044 43.625 86.25 C42.09898223 86.22986955 40.5729383 86.21163054 39.046875 86.1953125 C35.36402562 86.15191458 31.6821899 86.08326399 28 86 C28.00785522 87.71884399 28.00785522 87.71884399 28.01586914 89.47241211 C28.03391717 93.70840682 28.04543128 97.94439812 28.05493164 102.18041992 C28.05997231 104.01668875 28.06680477 105.85295354 28.07543945 107.68920898 C28.08751672 110.32276401 28.09323081 112.95626616 28.09765625 115.58984375 C28.10281754 116.41588608 28.10797882 117.24192841 28.11329651 118.09300232 C28.11349205 120.06236368 28.06204152 122.03161614 28 124 C27.67 124.33 27.34 124.66 27 125 C18.42 125 9.84 125 1 125 C0.67 83.75 0.34 42.5 0 0 Z " fill="#00CAAF" transform="translate(442,721)"/>
<path d="M0 0 C10.81287088 8.093069 17.33788873 17.2753377 20.91015625 30.4296875 C20.91015625 31.7496875 20.91015625 33.0696875 20.91015625 34.4296875 C11.34015625 34.4296875 1.77015625 34.4296875 -8.08984375 34.4296875 C-9.07984375 31.7896875 -10.06984375 29.1496875 -11.08984375 26.4296875 C-14.57917162 20.65887602 -20.25754009 18.34583933 -26.08984375 15.4296875 C-35.85752994 14.67997474 -44.94428955 14.19794312 -53.08984375 20.4296875 C-61.18419893 27.37778323 -64.10594656 38.14128106 -65.08984375 48.4296875 C-65.91991741 62.53447994 -65.90502889 77.60443914 -57.08984375 89.4296875 C-51.97339407 95.1215814 -46.43480531 98.05592737 -38.8203125 98.7109375 C-28.71953145 98.97357969 -20.2563245 98.04377092 -12.5625 91.125 C-9.10166196 87.14090528 -7.5805425 83.22271541 -6.40234375 78.1171875 C-5.96921875 76.2403125 -5.53609375 74.3634375 -5.08984375 72.4296875 C-13.00984375 72.4296875 -20.92984375 72.4296875 -29.08984375 72.4296875 C-29.08984375 65.4996875 -29.08984375 58.5696875 -29.08984375 51.4296875 C-24.39820928 51.40643601 -19.70678343 51.38661543 -15.01513672 51.37475586 C-13.42691359 51.36979966 -11.83869484 51.36303274 -10.25048828 51.35424805 C0.51396096 51.29630136 11.17558495 51.6139263 21.91015625 52.4296875 C21.70056673 91.42155695 21.70056673 91.42155695 9.91015625 105.4296875 C9.348125 106.12449219 8.78609375 106.81929687 8.20703125 107.53515625 C-1.13866823 117.99998361 -15.43907799 121.82830447 -29.0390625 122.67578125 C-46.49484066 123.14641824 -63.65181354 120.41740753 -77.08984375 108.4296875 C-92.8172193 90.93332771 -94.06119987 68.79691801 -93.24951172 46.41992188 C-92.45487049 31.53801694 -88.02268372 17.392303 -77.43359375 6.45703125 C-68.61877728 -1.167785 -59.32490172 -5.05944727 -48.08984375 -7.5703125 C-47.28804688 -7.75980469 -46.48625 -7.94929687 -45.66015625 -8.14453125 C-30.84666278 -10.59843822 -12.80777807 -8.19901499 0 0 Z " fill="#00C7B2" transform="translate(401.08984375,726.5703125)"/>
<path d="M0 0 C7.84063272 6.29128613 11.25278967 15.50199433 12.59643555 25.20922852 C14.24651117 42.22644913 15.17088913 62.45416997 3.8125 76.4375 C-3.88391927 83.74027525 -10.10555105 85.92672276 -20.67578125 85.75 C-25.54677385 85.31654126 -29.08423239 84.0471782 -33.1875 81.4375 C-34.12335938 80.85355469 -34.12335938 80.85355469 -35.078125 80.2578125 C-41.48820726 75.54779553 -45.75208683 67.2038407 -47.1875 59.4375 C-49.29307907 40.72124156 -50.67754126 18.88688777 -38.484375 3.25390625 C-28.2136922 -7.87266678 -12.18493379 -8.19291738 0 0 Z " fill="#000001" transform="translate(526.1875,574.5625)"/>
<path d="M0 0 C8.91 0 17.82 0 27 0 C27 43.56 27 87.12 27 132 C18.09 132 9.18 132 0 132 C0 88.44 0 44.88 0 0 Z " fill="#00CEA5" transform="translate(605,713)"/>
<path d="M0 0 C8.58 0 17.16 0 26 0 C26 32.01 26 64.02 26 97 C17.42 97 8.84 97 0 97 C0 64.99 0 32.98 0 0 Z " fill="#00D4A2" transform="translate(657,749)"/>
<path d="M0 0 C8.25 0 16.5 0 25 0 C25 31.68 25 63.36 25 96 C16.75 96 8.5 96 0 96 C0 64.32 0 32.64 0 0 Z " fill="#00D3A6" transform="translate(559,749)"/>
<path d="M0 0 C6.1565625 -0.0928125 6.1565625 -0.0928125 12.4375 -0.1875 C13.71294678 -0.21481201 14.98839355 -0.24212402 16.30249023 -0.27026367 C24.34884053 -0.32861148 30.857791 0.5146746 37.8125 4.6875 C42.82829631 9.98991325 44.28046749 14.68282322 44.5625 22 C44.36956793 28.21374334 43.36665864 32.48551177 39 37 C33.61699996 41.19874003 29.87490332 42.12605444 23.14453125 42.09765625 C21.93385986 42.09515869 20.72318848 42.09266113 19.47583008 42.09008789 C17.93693115 42.08098389 16.39803223 42.07187988 14.8125 42.0625 C9.924375 42.041875 5.03625 42.02125 0 42 C0 28.14 0 14.28 0 0 Z " fill="#000000" transform="translate(356,570)"/>
<path d="M0 0 C5.878125 -0.1546875 5.878125 -0.1546875 11.875 -0.3125 C13.69620361 -0.38078003 13.69620361 -0.38078003 15.55419922 -0.45043945 C23.0620775 -0.54512791 28.79212784 0.61445077 35 5 C39.70016181 9.92885763 40.90670664 15.25051331 41.1953125 21.96484375 C40.79588224 28.17199003 38.80710024 33.76263751 34.125 38 C29.14793069 41.18532436 24.82304952 42.25590773 18.9453125 42.1953125 C17.94516113 42.19031738 16.94500977 42.18532227 15.91455078 42.18017578 C14.66399902 42.16196777 13.41344727 42.14375977 12.125 42.125 C8.12375 42.08375 4.1225 42.0425 0 42 C0 28.14 0 14.28 0 0 Z " fill="#000101" transform="translate(470,743)"/>
<path d="M0 0 C1.0774307 -0.00397441 2.1548614 -0.00794881 3.26494151 -0.01204365 C6.85765684 -0.02163072 10.44997486 -0.00987004 14.04267883 0.00190735 C16.62537279 -0.00052175 19.2080658 -0.00424221 21.79075623 -0.00915527 C28.06612662 -0.01861838 34.34138161 -0.01206586 40.61674341 0.00010767 C47.92834863 0.01376082 55.23992669 0.01208697 62.55154143 0.00997434 C75.59727623 0.00678826 88.64295634 0.01843155 101.68867493 0.03804016 C114.34233769 0.05705442 126.9959364 0.06412417 139.64961243 0.05854797 C153.43955906 0.05248899 167.22947757 0.05266853 181.01942188 0.06403381 C182.48991541 0.06524107 183.96040894 0.06644705 185.43090248 0.06765175 C186.51609524 0.06855706 186.51609524 0.06855706 187.62321108 0.06948065 C192.71806608 0.07335766 197.81291059 0.07296707 202.90776634 0.0710659 C209.76387883 0.06872126 216.61990757 0.07727886 223.47600174 0.0931263 C225.99391273 0.09737307 228.51183207 0.09821707 231.0297451 0.0954361 C234.4626291 0.0922194 237.89526637 0.10128344 241.328125 0.11352539 C242.32782828 0.10974607 243.32753155 0.10596674 244.35752887 0.10207289 C249.31732533 0.13342854 253.3168 0.4618469 257.97358704 2.3742218 C260.58043218 3.05983714 263.18762191 3.74017603 265.80171204 4.3976593 C268.51702313 5.61857257 268.84184403 6.6940486 269.97358704 9.3742218 C272.22848945 11.34726142 274.2923591 13.03360783 276.97358704 14.3742218 C276.64358704 15.0342218 276.31358704 15.6942218 275.97358704 16.3742218 C276.63358704 16.7042218 277.29358704 17.0342218 277.97358704 17.3742218 C277.64358704 18.0342218 277.31358704 18.6942218 276.97358704 19.3742218 C277.63358704 19.3742218 278.29358704 19.3742218 278.97358704 19.3742218 C281.04017988 22.47411106 281.22322087 23.1119051 281.21968269 26.6164732 C281.22366479 27.48632845 281.22764689 28.35618369 281.23174965 29.25239819 C281.22592397 30.20861485 281.22009829 31.1648315 281.21409607 32.15002441 C281.21665934 33.6729508 281.21665934 33.6729508 281.2192744 35.22664338 C281.22258095 38.64464066 281.21154638 42.06244365 281.20063782 45.48042297 C281.20007396 47.92418412 281.20038977 50.3679456 281.20152283 52.81170654 C281.20197895 58.08116361 281.19628896 63.35055966 281.18504715 68.62000084 C281.1688039 76.23874997 281.16358535 83.85747515 281.16107117 91.47623972 C281.15669221 103.83669718 281.14337769 116.19712827 281.12446594 128.55757141 C281.10611232 140.56570809 281.09195328 152.57383761 281.08345032 164.58198547 C281.08292487 165.32197221 281.08239942 166.06195894 281.08185805 166.82436951 C281.07924801 170.53660724 281.07672059 174.24884501 281.07423425 177.96108282 C281.05349551 208.76548166 281.01811603 239.56984773 280.97358704 270.3742218 C280.64358704 270.3742218 280.31358704 270.3742218 279.97358704 270.3742218 C279.97212048 269.14231204 279.97065392 267.91040228 279.96914291 266.64116192 C279.93340877 237.37070933 279.87712127 208.10037064 279.79566608 178.83001329 C279.78564913 175.22406301 279.77580491 171.61811229 279.7660675 168.01216125 C279.76412613 167.29430851 279.76218476 166.57645576 279.76018456 165.83684991 C279.72919869 154.22717095 279.71219345 142.61751173 279.70039281 131.00779923 C279.68796353 119.08718911 279.66042214 107.16668231 279.61897397 95.24613744 C279.59613506 88.55387748 279.58067658 81.86177388 279.58170319 75.16946983 C279.58244958 68.86656127 279.56450632 62.56397845 279.5324192 56.26115417 C279.52392189 53.95177 279.5221691 51.64234929 279.52778435 49.33295631 C279.67481365 28.55744413 279.67481365 28.55744413 269.12983704 11.25312805 C263.66138475 6.48804554 257.55701165 4.2560585 250.3422842 4.24000072 C249.41103708 4.23554288 248.47978995 4.23108504 247.52032322 4.22649211 C246.5005947 4.22667647 245.48086619 4.22686083 244.43023682 4.22705078 C243.34427186 4.22337409 242.25830691 4.21969741 241.13943392 4.2159093 C237.48771133 4.20486534 233.83601719 4.20102738 230.1842804 4.19721985 C227.57102874 4.1909557 224.95777798 4.18430895 222.3445282 4.17730713 C214.49290799 4.15755647 206.64128651 4.14747778 198.78964767 4.13857934 C195.08969959 4.1341937 191.38975294 4.12882757 187.68980598 4.12359047 C175.38572836 4.10657875 163.08165162 4.09208576 150.77756405 4.08484173 C147.58549943 4.08293191 144.39343483 4.08101157 141.20137024 4.07905579 C140.40802352 4.07857205 139.61467679 4.07808831 138.79728926 4.07758991 C125.95270879 4.069294 113.10822159 4.04396428 100.26368182 4.01147511 C87.0683454 3.97837153 73.87305632 3.96038995 60.67767817 3.95719749 C53.27228261 3.95503532 45.86702302 3.94632992 38.46166801 3.92073631 C31.49230145 3.89670483 24.52318289 3.89322434 17.55378342 3.9034977 C14.99926376 3.90399307 12.44473206 3.89767234 9.89024925 3.88394165 C6.39514888 3.86621 2.90092435 3.87333628 -0.59417725 3.88647461 C-1.59829071 3.87550536 -2.60240417 3.86453612 -3.63694531 3.85323447 C-11.74592743 3.92651747 -18.85801178 5.87318109 -25.83891296 10.0617218 C-32.14021216 16.72309523 -35.12482287 23.45009284 -37.02641296 32.3742218 C-37.35641296 32.3742218 -37.68641296 32.3742218 -38.02641296 32.3742218 C-38.35641296 52.5042218 -38.68641296 72.6342218 -39.02641296 93.3742218 C-39.35641296 93.3742218 -39.68641296 93.3742218 -40.02641296 93.3742218 C-40.11958885 85.2196946 -40.19041664 77.06539429 -40.23366165 68.91046429 C-40.25442981 65.12271852 -40.2825465 61.33534017 -40.32817078 57.54780579 C-40.37201828 53.88434107 -40.3956308 50.22122704 -40.40592194 46.55751991 C-40.41324432 45.16822104 -40.42754083 43.77893873 -40.44933319 42.38979149 C-40.56914818 34.42676838 -40.0705144 27.90160188 -36.88768005 20.54348755 C-35.84190741 18.29850713 -35.84190741 18.29850713 -36.02641296 15.3742218 C-35.03641296 15.3742218 -34.04641296 15.3742218 -33.02641296 15.3742218 C-33.00578796 14.7967218 -32.98516296 14.2192218 -32.96391296 13.6242218 C-31.66016076 10.4952165 -29.66407692 9.79241528 -26.71781921 8.3039093 C-24.84076145 7.37461405 -24.84076145 7.37461405 -23.02641296 5.3742218 C-22.03641296 5.3742218 -21.04641296 5.3742218 -20.02641296 5.3742218 C-20.02641296 4.7142218 -20.02641296 4.0542218 -20.02641296 3.3742218 C-13.23904339 0.61354399 -7.28480982 -0.05409835 0 0 Z " fill="#00B2ED" transform="translate(380.0264129638672,194.6257781982422)"/>
<path d="M0 0 C1.61124131 -0.00445668 1.61124131 -0.00445668 3.25503296 -0.0090034 C6.8489799 -0.01766449 10.44289343 -0.01919647 14.03684998 -0.02069092 C16.6161201 -0.02532096 19.19538955 -0.03034587 21.7746582 -0.03573608 C28.77909082 -0.04928786 35.7835177 -0.05533934 42.78796124 -0.05974674 C47.16698085 -0.06251481 51.54599828 -0.0667532 55.9250164 -0.07125092 C68.06450671 -0.08344002 80.20399526 -0.09373968 92.34349155 -0.09712601 C93.50776404 -0.09745536 93.50776404 -0.09745536 94.69555717 -0.09779136 C95.47353031 -0.09800964 96.25150345 -0.09822791 97.05305153 -0.09845281 C98.62935674 -0.09889626 100.20566195 -0.09934283 101.78196716 -0.09979248 C102.56385861 -0.10001391 103.34575005 -0.10023534 104.15133517 -0.10046348 C116.80938421 -0.10440813 129.46737556 -0.12185357 142.12540234 -0.145152 C155.14117667 -0.16891423 168.15692211 -0.18133009 181.17271847 -0.18249393 C188.4725035 -0.18340801 195.77221338 -0.18909277 203.07197762 -0.20731354 C209.94287158 -0.22440413 216.81362119 -0.22593087 223.68453026 -0.21717453 C226.19908658 -0.21640621 228.71365067 -0.22071972 231.22818756 -0.23063278 C251.98833526 -0.30764171 271.29748501 0.29878271 287.22996521 15.39044189 C291.96439587 20.47299245 295.537099 25.73625367 298.22996521 32.14044189 C298.50429382 32.74332031 298.77862244 33.34619873 299.06126404 33.96734619 C301.94937962 41.14546982 301.35708283 48.09716807 300.91746521 55.70294189 C300.82561951 57.64523682 300.82561951 57.64523682 300.73191833 59.62677002 C300.57974146 62.79907252 300.41205022 65.96973924 300.22996521 69.14044189 C299.89996521 69.14044189 299.56996521 69.14044189 299.22996521 69.14044189 C299.22585632 68.31955078 299.22174744 67.49865967 299.21751404 66.65289307 C299.19024591 63.55283433 299.14086267 60.45406593 299.07737732 57.35455322 C299.04327925 55.37519601 299.03378208 53.39546343 299.02488708 51.41583252 C298.85304139 43.87371612 297.99217811 38.17925536 294.39280701 31.5010376 C293.17889171 29.0367615 292.6522581 26.84401811 292.22996521 24.14044189 C291.23996521 24.14044189 290.24996521 24.14044189 289.22996521 24.14044189 C286.87273032 21.60859702 286.22996521 20.66854096 286.22996521 17.14044189 C285.56996521 17.14044189 284.90996521 17.14044189 284.22996521 17.14044189 C283.89996521 16.48044189 283.56996521 15.82044189 283.22996521 15.14044189 C282.56996521 15.47044189 281.90996521 15.80044189 281.22996521 16.14044189 C280.89996521 14.82044189 280.56996521 13.50044189 280.22996521 12.14044189 C279.56996521 12.14044189 278.90996521 12.14044189 278.22996521 12.14044189 C278.22996521 11.48044189 278.22996521 10.82044189 278.22996521 10.14044189 C277.01309021 9.85169189 275.79621521 9.56294189 274.54246521 9.26544189 C271.29983615 8.45478463 268.32053226 7.42189653 265.22996521 6.14044189 C258.39629416 3.34379982 252.38325394 2.71435716 245.03823853 2.77294922 C243.94306248 2.76968038 242.84788644 2.76641154 241.71952325 2.76304364 C238.06685508 2.75578775 234.41459103 2.76989654 230.76194763 2.78399658 C228.13660107 2.78320538 225.51125463 2.78110712 222.88591003 2.77780151 C216.50692998 2.77218309 210.12807068 2.78245338 203.7491112 2.79808947 C196.31906453 2.81566317 188.88904099 2.81704943 181.45897678 2.81770507 C168.20463505 2.8193911 154.95034819 2.8351836 141.69602966 2.85919189 C128.8346969 2.88247141 115.97339894 2.89662018 103.11204529 2.90020752 C101.92269275 2.90054167 101.92269275 2.90054167 100.70931288 2.90088257 C99.11198616 2.90132517 97.51465944 2.9017672 95.91733273 2.90220864 C94.73541124 2.90253799 94.73541124 2.90253799 93.52961254 2.90287399 C92.74365171 2.90308998 91.95769088 2.90330597 91.14791305 2.9035285 C78.88692396 2.90722813 66.62594047 2.9185857 54.36495754 2.93100439 C49.92142512 2.93543922 45.47789324 2.93887764 41.03435948 2.94162652 C33.33187113 2.94647109 25.62941466 2.956578 17.92694092 2.97245407 C15.36626236 2.97698291 12.80558019 2.97981712 10.24489784 2.98086166 C6.75882928 2.98260312 3.27282839 2.99047478 -0.21322632 3 C-1.74486545 2.99870028 -1.74486545 2.99870028 -3.30744678 2.9973743 C-4.2399273 3.00121544 -5.17240782 3.00505659 -6.13314533 3.00901413 C-7.34017297 3.01088388 -7.34017297 3.01088388 -8.571585 3.0127914 C-10.76300117 3.1400335 -12.65936108 3.55853839 -14.77003479 4.14044189 C-16.14308049 4.30365299 -17.51828366 4.44968941 -18.89503479 4.57794189 C-22.77509027 4.7467023 -22.77509027 4.7467023 -24.77003479 7.14044189 C-26.75130478 8.26316155 -28.39143519 9.07734196 -30.64503479 9.45294189 C-33.31788002 10.31768594 -35.07055363 11.86857032 -37.14112854 13.72637939 C-38.77003479 15.14044189 -38.77003479 15.14044189 -40.43019104 16.24200439 C-47.74018091 21.40395624 -52.32655144 31.37466376 -54.46144104 39.90216064 C-54.73978739 42.08564329 -54.73978739 42.08564329 -54.72291565 44.07487488 C-54.77003479 46.14044189 -54.77003479 46.14044189 -55.27003479 49.42779541 C-56.04214698 55.38143464 -55.88035102 61.37237701 -55.84519958 67.36384392 C-55.83232724 69.5784946 -55.82589413 71.79308478 -55.82106018 74.00776672 C-55.8097001 78.69785263 -55.79041486 83.38788768 -55.77003479 88.07794189 C-55.74643987 93.53891689 -55.72608642 98.99986455 -55.71409607 104.46087837 C-55.70759856 106.64633557 -55.69509915 108.83170698 -55.68238831 111.01713562 C-55.67908508 112.33262894 -55.67578186 113.64812225 -55.67237854 115.003479 C-55.66714172 116.16737656 -55.66190491 117.33127411 -55.6565094 118.53044128 C-55.77003479 121.14044189 -55.77003479 121.14044189 -56.77003479 122.14044189 C-56.89257029 123.67426868 -56.94781417 125.21354708 -56.97535706 126.75201416 C-56.99530228 127.73295547 -57.0152475 128.71389679 -57.03579712 129.7245636 C-57.05250961 130.7912175 -57.06922211 131.8578714 -57.08644104 132.95684814 C-57.10722214 134.0430394 -57.12800323 135.12923065 -57.14941406 136.24833679 C-57.21502921 139.73313816 -57.2738499 143.21801758 -57.33253479 146.70294189 C-57.37570864 149.0590699 -57.41932255 151.41518989 -57.46339417 153.77130127 C-57.57072271 159.56093127 -57.67246644 165.35063965 -57.77003479 171.14044189 C-58.10003479 171.14044189 -58.43003479 171.14044189 -58.77003479 171.14044189 C-58.84031284 155.04973654 -58.89311459 138.95908146 -58.92547131 122.86825943 C-58.94089865 115.39594625 -58.96190843 107.92372877 -58.99635315 100.45147705 C-59.02638283 93.93385841 -59.04563978 87.41630914 -59.05230027 80.89862323 C-59.05618973 77.45189236 -59.06524262 74.00535983 -59.08722496 70.55869293 C-59.11164373 66.69821126 -59.11199614 62.83791843 -59.11061096 58.97735596 C-59.12139679 57.85165695 -59.13218262 56.72595795 -59.14329529 55.56614685 C-59.0825718 39.8365401 -54.15555334 26.32926449 -43.50440979 14.68731689 C-41.77003479 13.14044189 -41.77003479 13.14044189 -39.77003479 13.14044189 C-39.77003479 12.48044189 -39.77003479 11.82044189 -39.77003479 11.14044189 C-37.23084473 9.84370588 -34.68889241 8.55296353 -32.14503479 7.26544189 C-31.43218323 6.90063721 -30.71933167 6.53583252 -29.98487854 6.15997314 C-19.94883242 1.09591318 -11.09896719 -0.00964338 0 0 Z " fill="#0088F6" transform="translate(379.77003479003906,174.85955810546875)"/>
<path d="M0 0 C4.09579782 3.42904003 5.71025687 6.34138944 6.5625 11.5625 C6.94255005 16.3131256 6.13171084 20.14223881 3.6875 24.25 C-1.33284595 29.02545103 -4.80040671 29.60184215 -11.55078125 29.53125 C-16.53624856 29.02353621 -19.08200701 26.38072329 -22.625 23.125 C-25.07177104 18.95642712 -25.50532847 15.04757224 -25.3125 10.25 C-23.70410353 5.51416596 -21.13345302 2.44893741 -17.3125 -0.75 C-11.21745421 -3.72980016 -5.85734142 -3.09444452 0 0 Z " fill="#00D2A5" transform="translate(478.3125,429.75)"/>
<path d="M0 0 C4.29119274 2.09462108 6.40789166 4.95752833 8.27734375 9.30078125 C9.67115975 13.72282844 9.37302781 17.11620844 7.87109375 21.4453125 C5.32288737 25.30872218 3.13921717 28.28358309 -1.06640625 30.3828125 C-6.15129507 31.27567592 -11.28411018 31.53465152 -16.1328125 29.52734375 C-19.51876528 27.04091727 -21.47584666 23.55487216 -22.72265625 19.62890625 C-23.48240789 14.66461997 -22.49407583 9.80885241 -19.94921875 5.484375 C-14.79908882 -1.07324385 -7.84722268 -2.34378295 0 0 Z " fill="#00D2A1" transform="translate(593.06640625,428.6171875)"/>
<path d="M0 0 C4.69994029 1.71728588 7.20959499 3.86606666 10 8 C11.69802621 13.09407863 11.8718259 17.90186248 9.5 22.75 C6.89913337 26.72886965 3.5601528 28.77967742 -1 30 C-5.59510775 30.30634052 -8.93522406 29.64812448 -12.875 27.25 C-16.63227708 23.27170662 -18.18989062 20.56768182 -18.4375 15.0625 C-18.27484835 10.30317126 -17.26122101 7.60450744 -14 4 C-9.44787756 0.06862153 -5.81719888 -0.95402062 0 0 Z " fill="#00C5B7" transform="translate(673,705)"/>
<path d="M0 0 C3.37788888 2.79882221 4.89985425 5.61378317 5.47265625 9.9921875 C5.66549203 14.97238108 5.19259998 18.68048753 2.1875 22.8125 C-1.28190867 25.70750326 -4.45185287 27.59479646 -8.9375 28.3125 C-14.30357368 27.37926979 -18.51194721 25.12874956 -21.89453125 20.75 C-23.84994224 16.62283468 -23.52892767 12.22937517 -22.8125 7.8125 C-20.51866803 3.22483607 -17.80733285 0.09599979 -13.0625 -1.9375 C-8.41116118 -2.45431542 -4.26187588 -1.79945871 0 0 Z " fill="#00C4BB" transform="translate(579.8125,707.1875)"/>
<path d="M0 0 C1.08396057 -0.00043808 2.16792114 -0.00087616 3.284729 -0.00132751 C6.83966578 0.00074944 10.39412101 0.02402927 13.94897461 0.04760742 C16.42475629 0.05320725 18.90054131 0.05747552 21.37632751 0.06047058 C27.87170699 0.07188879 34.36688312 0.10133013 40.86218262 0.13458252 C47.49851096 0.16534857 54.13485934 0.17898986 60.77124023 0.1940918 C73.77718603 0.22620258 86.78299134 0.27678037 99.78881836 0.34057617 C99.78881836 0.67057617 99.78881836 1.00057617 99.78881836 1.34057617 C175.02881836 1.83557617 175.02881836 1.83557617 251.78881836 2.34057617 C251.78881836 2.67057617 251.78881836 3.00057617 251.78881836 3.34057617 C251.23437929 3.34117326 250.67994023 3.34177035 250.10869998 3.34238553 C217.2238738 3.37830538 184.33915629 3.43498406 151.45441763 3.51849712 C147.50297801 3.52851418 143.55153797 3.53835838 139.60009766 3.5480957 C138.81346077 3.55003708 138.02682389 3.55197845 137.21634952 3.55397865 C124.49119435 3.58497167 111.7660572 3.60197176 99.0408714 3.6137704 C85.97669362 3.62619595 72.91261018 3.65372901 59.84849197 3.69518924 C51.79185672 3.72028451 43.73537799 3.73369636 35.67870311 3.73200575 C29.49336259 3.73197238 23.30825383 3.75299211 17.12298393 3.781744 C14.59106555 3.79024752 12.0591138 3.7919899 9.52718735 3.78637886 C6.06247194 3.77972468 2.59869951 3.79769536 -0.86592102 3.82159424 C-1.86109011 3.81383382 -2.85625921 3.8060734 -3.88158494 3.79807782 C-11.957693 3.89627241 -19.07109638 5.85652502 -26.02368164 10.02807617 C-32.32498083 16.6894496 -35.30959154 23.41644721 -37.21118164 32.34057617 C-37.54118164 32.34057617 -37.87118164 32.34057617 -38.21118164 32.34057617 C-38.54118164 52.47057617 -38.87118164 72.60057617 -39.21118164 93.34057617 C-39.54118164 93.34057617 -39.87118164 93.34057617 -40.21118164 93.34057617 C-40.30435752 85.18604897 -40.37518531 77.03174866 -40.41843033 68.87681866 C-40.43919849 65.08907289 -40.46731518 61.30169454 -40.51293945 57.51416016 C-40.55678696 53.85069544 -40.58039947 50.18758141 -40.59069061 46.52387428 C-40.59801299 45.13457541 -40.61230951 43.7452931 -40.63410187 42.35614586 C-40.75391686 34.39312275 -40.25528307 27.86795625 -37.07244873 20.50984192 C-36.02667609 18.2648615 -36.02667609 18.2648615 -36.21118164 15.34057617 C-35.22118164 15.34057617 -34.23118164 15.34057617 -33.21118164 15.34057617 C-33.19055664 14.76307617 -33.16993164 14.18557617 -33.14868164 13.59057617 C-31.84492943 10.46157087 -29.8488456 9.75876965 -26.90258789 8.27026367 C-25.02553013 7.34096842 -25.02553013 7.34096842 -23.21118164 5.34057617 C-22.22118164 5.34057617 -21.23118164 5.34057617 -20.21118164 5.34057617 C-20.21118164 4.68057617 -20.21118164 4.02057617 -20.21118164 3.34057617 C-13.36374278 0.53883259 -7.35252102 -0.0788634 0 0 Z " fill="#007BD8" transform="translate(380.211181640625,194.659423828125)"/>
<path d="M0 0 C1.20333984 -0.00386719 2.40667969 -0.00773438 3.64648438 -0.01171875 C11.25151182 -0.00350154 18.74594578 0.36059606 26.3125 1.125 C25.9825 1.785 25.6525 2.445 25.3125 3.125 C24.15202148 3.11976318 22.99154297 3.11452637 21.79589844 3.10913086 C17.48714978 3.09101999 13.17840449 3.07954569 8.86962891 3.07006836 C7.00536534 3.06504208 5.1411057 3.05822008 3.27685547 3.04956055 C0.59601876 3.03742037 -2.0847658 3.03175461 -4.765625 3.02734375 C-5.59805725 3.02218246 -6.4304895 3.01702118 -7.28814697 3.01170349 C-8.45890778 3.01159019 -8.45890778 3.01159019 -9.65332031 3.01147461 C-10.67924286 3.00814369 -10.67924286 3.00814369 -11.72589111 3.00474548 C-13.81972936 3.13310619 -15.66644154 3.57777922 -17.6875 4.125 C-19.0605457 4.28821109 -20.43574887 4.43424752 -21.8125 4.5625 C-25.69255548 4.73126041 -25.69255548 4.73126041 -27.6875 7.125 C-29.66876999 8.24771966 -31.3089004 9.06190007 -33.5625 9.4375 C-36.23534523 10.30224405 -37.98801884 11.85312843 -40.05859375 13.7109375 C-41.6875 15.125 -41.6875 15.125 -43.34765625 16.2265625 C-50.65764612 21.38851435 -55.24401665 31.35922187 -57.37890625 39.88671875 C-57.6572526 42.0702014 -57.6572526 42.0702014 -57.64038086 44.05943298 C-57.6875 46.125 -57.6875 46.125 -58.1875 49.41235352 C-58.95961219 55.36599274 -58.79781623 61.35693511 -58.76266479 67.34840202 C-58.74979245 69.5630527 -58.74335934 71.77764288 -58.73852539 73.99232483 C-58.72716531 78.68241073 -58.70788007 83.37244578 -58.6875 88.0625 C-58.66390508 93.523475 -58.64355163 98.98442265 -58.63156128 104.44543648 C-58.62506377 106.63089368 -58.61256436 108.81626509 -58.59985352 111.00169373 C-58.59655029 112.31718704 -58.59324707 113.63268036 -58.58984375 114.98803711 C-58.58460693 116.15193466 -58.57937012 117.31583221 -58.57397461 118.51499939 C-58.6875 121.125 -58.6875 121.125 -59.6875 122.125 C-59.8100355 123.65882679 -59.86527938 125.19810519 -59.89282227 126.73657227 C-59.91276749 127.71751358 -59.93271271 128.6984549 -59.95326233 129.7091217 C-59.96997482 130.7757756 -59.98668732 131.8424295 -60.00390625 132.94140625 C-60.02468735 134.0275975 -60.04546844 135.11378876 -60.06687927 136.2328949 C-60.13249442 139.71769627 -60.19131511 143.20257568 -60.25 146.6875 C-60.29317385 149.04362801 -60.33678776 151.39974799 -60.38085938 153.75585938 C-60.48818792 159.54548937 -60.58993165 165.33519775 -60.6875 171.125 C-61.0175 171.125 -61.3475 171.125 -61.6875 171.125 C-61.75777805 155.03429465 -61.8105798 138.94363957 -61.84293652 122.85281754 C-61.85836386 115.38050435 -61.87937364 107.90828688 -61.91381836 100.43603516 C-61.94384804 93.91841652 -61.96310499 87.40086724 -61.96976548 80.88318133 C-61.97365494 77.43645047 -61.98270783 73.98991794 -62.00469017 70.54325104 C-62.02910893 66.68276937 -62.02946135 62.82247654 -62.02807617 58.96191406 C-62.038862 57.83621506 -62.04964783 56.71051605 -62.0607605 55.55070496 C-62.00003701 39.8210982 -57.07301855 26.3138226 -46.421875 14.671875 C-44.6875 13.125 -44.6875 13.125 -42.6875 13.125 C-42.6875 12.465 -42.6875 11.805 -42.6875 11.125 C-40.14830994 9.82826398 -37.60635762 8.53752163 -35.0625 7.25 C-34.34964844 6.88519531 -33.63679688 6.52039063 -32.90234375 6.14453125 C-21.96367646 0.62502023 -12.12569653 -0.03835223 0 0 Z " fill="#0096EC" transform="translate(382.6875,174.875)"/>
<path d="M0 0 C2 2 2 2 2 6 C3.22058105 5.96970703 4.44116211 5.93941406 5.69873047 5.90820312 C43.35768031 5.0087261 81.01772742 4.86072003 118.68601227 4.81832886 C122.63718376 4.81248197 126.58832883 4.80276376 130.53948975 4.79199219 C136.83329178 4.77539073 143.12702209 4.76909655 149.42084503 4.77080345 C151.78184619 4.76995871 154.14284865 4.76575548 156.50383759 4.75811195 C159.75605709 4.7483864 163.0080309 4.75108106 166.26025391 4.75708008 C167.22490004 4.75145805 168.18954617 4.74583603 169.183424 4.74004364 C170.49613116 4.74633915 170.49613116 4.74633915 171.83535767 4.75276184 C172.97671142 4.75194469 172.97671142 4.75194469 174.14112282 4.75111103 C176 5 176 5 178 7 C177.34 7.66 176.68 8.32 176 9 C173.70567322 8.97875977 173.70567322 8.97875977 170.69897461 8.62890625 C162.06431398 7.82714427 153.4751023 7.88748768 144.80898666 7.92469788 C141.73220062 7.93786023 138.65545281 7.94470409 135.5786438 7.95007324 C131.17964781 7.95829388 126.78066861 7.96896642 122.38168335 7.98168945 C110.97062035 8.01374469 99.55954172 8.02610194 88.1484375 8.03125 C86.45569608 8.03207329 86.45569608 8.03207329 84.72875786 8.03291321 C56.47907739 8.04039107 28.2422931 7.64044866 0 7 C0 4.69 0 2.38 0 0 Z " fill="#00AEEE" transform="translate(448,265)"/>
<path d="M0 0 C2.01822917 0.29296875 4.03645833 0.5859375 6.0546875 0.87890625 C8.08140667 1.1684297 8.08140667 1.1684297 10 0 C10.99 0.66 11.98 1.32 13 2 C15.16130732 2.3035647 15.16130732 2.3035647 17.58583355 2.26171303 C18.5323235 2.26917852 19.47881345 2.27664401 20.45398492 2.28433573 C22.01671119 2.28143363 22.01671119 2.28143363 23.61100769 2.2784729 C24.7161301 2.2842653 25.82125251 2.2900577 26.95986348 2.29602563 C30.68184892 2.31310002 34.40371092 2.31590855 38.12573242 2.31884766 C40.78624689 2.32814071 43.44674748 2.33822073 46.10725403 2.34928894 C51.84486044 2.37158316 57.58244896 2.38658341 63.32008934 2.39665604 C71.61578857 2.41122992 79.91142546 2.43676308 88.20708815 2.46498732 C101.66563017 2.51047882 115.12418114 2.54708386 128.58276367 2.578125 C141.657975 2.6083009 154.73316439 2.64264673 167.80834961 2.68261719 C168.61405024 2.68507874 169.41975088 2.68754028 170.24986669 2.69007643 C174.29175423 2.70245084 178.33364152 2.71490741 182.37552869 2.72740483 C215.91698932 2.83100793 249.45847434 2.92019952 283 3 C283 3.33 283 3.66 283 4 C248.24722788 4.06868819 213.49447127 4.12153999 178.74164591 4.15319599 C174.63741552 4.15694804 170.53318527 4.16083102 166.42895508 4.16479492 C165.2033536 4.16597532 165.2033536 4.16597532 163.95299249 4.16717956 C150.72853865 4.18022835 137.50412398 4.20387929 124.27969337 4.23145839 C110.70707342 4.25952725 97.13447396 4.27617939 83.56182617 4.28226548 C75.1888683 4.28637885 66.81602118 4.29936391 58.44309741 4.3237494 C52.6990492 4.33962487 46.95505814 4.34439626 41.2109896 4.34050413 C37.89847738 4.33858539 34.58619886 4.34314453 31.27371216 4.35761642 C27.67711772 4.37255863 24.08099581 4.36894678 20.48439026 4.36076355 C18.92453387 4.37387134 18.92453387 4.37387134 17.33316523 4.38724393 C11.02631705 4.34850175 5.84188772 3.40232654 0 1 C0 0.67 0 0.34 0 0 Z " fill="#01FED0" transform="translate(354,506)"/>
<path d="M0 0 C0.33 0 0.66 0 1 0 C1.8439301 16.62721847 2.12965616 33.24709794 2.17724609 49.89355469 C2.18404799 52.03712311 2.1942672 54.18068358 2.20800781 56.32421875 C2.22607124 59.38549419 2.23016893 62.44648949 2.23046875 65.5078125 C2.23761398 66.4174173 2.24475922 67.32702209 2.25212097 68.26419067 C2.1990319 83.48886841 -2.93146785 96.31887489 -13.30078125 107.5234375 C-15 109 -15 109 -17 109 C-16.34 107.68 -15.68 106.36 -15 105 C-14.34 105 -13.68 105 -13 105 C-13 104.34 -13 103.68 -13 103 C-12.01 102.505 -12.01 102.505 -11 102 C-10.67 101.01 -10.34 100.02 -10 99 C-9.34 99 -8.68 99 -8 99 C-7.87625 98.21625 -7.7525 97.4325 -7.625 96.625 C-7 94 -7 94 -5 92 C-4.59952556 89.67724823 -4.2602896 87.34260643 -4 85 C-3.34 85 -2.68 85 -2 85 C-1.34 56.95 -0.68 28.9 0 0 Z " fill="#00E0BA" transform="translate(680,388)"/>
<path d="M0 0 C0.33 0 0.66 0 1 0 C1 27.72 1 55.44 1 84 C8.92 84 16.84 84 25 84 C25 71.79 25 59.58 25 47 C36.22 47 47.44 47 59 47 C59 47.33 59 47.66 59 48 C48.11 48 37.22 48 26 48 C26.01160156 50.73152344 26.02320313 53.46304688 26.03515625 56.27734375 C26.04294642 58.91170129 26.04902341 61.54605757 26.05493164 64.18041992 C26.05997231 66.01668875 26.06680477 67.85295354 26.07543945 69.68920898 C26.08751672 72.32276401 26.09323081 74.95626616 26.09765625 77.58984375 C26.10281754 78.41588608 26.10797882 79.24192841 26.11329651 80.09300232 C26.11349205 82.06236368 26.06204152 84.03161614 26 86 C25.67 86.33 25.34 86.66 25 87 C16.42 87 7.84 87 -1 87 C-0.67 58.29 -0.34 29.58 0 0 Z " fill="#00C39A" transform="translate(444,759)"/>
<path d="M0 0 C7.75957454 -0.05066736 15.51910648 -0.08571984 23.27880859 -0.10986328 C25.91912429 -0.11992719 28.55942883 -0.13357952 31.19970703 -0.15087891 C34.99254103 -0.17510971 38.78522779 -0.18647923 42.578125 -0.1953125 C44.35174408 -0.21079636 44.35174408 -0.21079636 46.16119385 -0.22659302 C47.26203308 -0.22674408 48.36287231 -0.22689514 49.49707031 -0.22705078 C50.46525696 -0.231492 51.4334436 -0.23593323 52.43096924 -0.24050903 C55.16511732 0.01545805 56.72649278 0.47571233 59 2 C62.84177278 8.28653727 64.42650004 14.84772745 66 22 C65.01 22 64.02 22 63 22 C61 17.25 61 17.25 61 15 C60.27461817 12.96634024 59.46453816 10.97466626 58.65625 8.97265625 C58 7 58 7 58 4 C57.34 4 56.68 4 56 4 C56 3.34 56 2.68 56 2 C55.34 2.33 54.68 2.66 54 3 C52.40720554 3.0951697 50.81047823 3.12794828 49.21484375 3.12939453 C48.2204126 3.13254669 47.22598145 3.13569885 46.20141602 3.13894653 C45.12432373 3.1369223 44.04723145 3.13489807 42.9375 3.1328125 C41.835271 3.13376923 40.73304199 3.13472595 39.59741211 3.13571167 C37.26383406 3.13639306 34.93025411 3.13454163 32.59667969 3.13037109 C29.01493085 3.1250223 25.43330742 3.1303175 21.8515625 3.13671875 C19.58854139 3.13605796 17.32552036 3.13477678 15.0625 3.1328125 C13.44686157 3.13584885 13.44686157 3.13584885 11.79858398 3.13894653 C10.30693726 3.13421829 10.30693726 3.13421829 8.78515625 3.12939453 C7.90738525 3.12859894 7.02961426 3.12780334 6.12524414 3.12698364 C4 3 4 3 2 2 C1.67 2.66 1.34 3.32 1 4 C0.67 2.68 0.34 1.36 0 0 Z " fill="#0094E5" transform="translate(380,232)"/>
<path d="M0 0 C0 2.77996107 -0.21297929 5.42492567 -0.5 8.1875 C-0.5928125 9.08855469 -0.685625 9.98960937 -0.78125 10.91796875 C-0.88953125 11.94857422 -0.88953125 11.94857422 -1 13 C1.90600261 14.25664978 3.79604584 15 7 15 C8.33756081 15.02701989 9.67504329 15.05804526 11.01245117 15.09179688 C11.81305466 15.11181763 12.61365814 15.13183838 13.43852234 15.15246582 C14.29798965 15.1743396 15.15745697 15.19621338 16.04296875 15.21875 C16.9265657 15.24094604 17.81016266 15.26314209 18.72053528 15.28601074 C21.54286584 15.35698884 24.36518292 15.42848818 27.1875 15.5 C29.10091059 15.54821141 31.01432204 15.59638891 32.92773438 15.64453125 C37.61849959 15.76262734 42.30925279 15.88119091 47 16 C47.495 18.475 47.495 18.475 48 21 C48.66 21 49.32 21 50 21 C50.433125 22.60875 50.433125 22.60875 50.875 24.25 C51.80005415 27.8022041 51.80005415 27.8022041 53.125 30.0625 C54.32909302 32.72870598 54 35.09001995 54 38 C54.65438441 40.00405227 55.32060826 42.00428677 56 44 C56.125 46.875 56.125 46.875 56 49 C53.91833549 45.87750324 53.09924722 43.38934933 52.0546875 39.80078125 C51.70019531 38.59228516 51.34570312 37.38378906 50.98046875 36.13867188 C50.61566406 34.87603516 50.25085938 33.61339844 49.875 32.3125 C49.49916858 31.02525311 49.12287173 29.73814202 48.74609375 28.45117188 C47.82613681 25.30208851 46.91097399 22.15169146 46 19 C44.69329346 18.99589111 43.38658691 18.99178223 42.0402832 18.98754883 C37.18506605 18.96575196 32.33065866 18.91145598 27.47583008 18.84741211 C25.37597422 18.82423704 23.2760022 18.80983756 21.17602539 18.80444336 C18.15437475 18.79515037 15.13454983 18.75415154 12.11328125 18.70703125 C11.17664139 18.7109639 10.24000153 18.71489655 9.27497864 18.71894836 C4.67207319 18.61626616 2.64780427 18.51054581 -1.06958008 15.58081055 C-3.63343378 12.15315183 -4.12256048 10.57923328 -4.0625 6.375 C-4.05347656 5.55773437 -4.04445313 4.74046875 -4.03515625 3.8984375 C-4.02355469 3.27195313 -4.01195312 2.64546875 -4 2 C-2.68 1.34 -1.36 0.68 0 0 Z " fill="#009FE8" transform="translate(377,235)"/>
<path d="M0 0 C0.33 0 0.66 0 1 0 C0.99943446 0.85696535 0.99943446 0.85696535 0.9988575 1.73124313 C0.99171725 15.68046267 1.01822342 29.62927627 1.0802784 43.57836533 C1.10968232 50.32429787 1.1281315 57.0699175 1.12011719 63.81591797 C1.11350518 70.33252228 1.13611714 76.84844335 1.17855453 83.36490631 C1.18965219 85.8446128 1.19041632 88.32438885 1.18042374 90.80410004 C0.72710598 110.49994402 0.72710598 110.49994402 10.009552 127.22039795 C14.19716108 131.3555994 18.44833346 133.24197226 24 135 C25.3465266 135.63960014 26.68922893 136.289999 28 137 C27.67 137.99 27.34 138.98 27 140 C26.505 139.01 26.505 139.01 26 138 C24.3373217 137.64731066 22.66934283 137.31966139 21 137 C18.30219812 136.07075713 15.65946725 135.03674147 13 134 C13 133.34 13 132.68 13 132 C12.01 132 11.02 132 10 132 C9.67 130.68 9.34 129.36 9 128 C8.34 128 7.68 128 7 128 C6.34 126.35 5.68 124.7 5 123 C4.34 123 3.68 123 3 123 C3 122.01 3 121.02 3 120 C2.34 120 1.68 120 1 120 C-0.79892871 113.10705951 -1.25211049 106.89273832 -1.13525391 99.78881836 C-1.12579239 98.70485779 -1.11633087 97.62089722 -1.10658264 96.50408936 C-1.0731155 92.9491613 -1.02494286 89.39459743 -0.9765625 85.83984375 C-0.95037367 83.36406891 -0.92510842 80.88828414 -0.90072632 78.41249084 C-0.8342883 71.91707735 -0.75534951 65.42187432 -0.67376709 58.92663574 C-0.59263881 52.29036314 -0.52338849 45.65397389 -0.453125 39.01757812 C-0.31367863 26.01157271 -0.1614234 13.00575028 0 0 Z " fill="#00AE9F" transform="translate(342,352)"/>
<path d="M0 0 C0.33 0 0.66 0 1 0 C2.24812158 8.67638843 2.12694058 17.32392342 2.09765625 26.06640625 C2.09578815 27.71264096 2.0943661 29.35887623 2.09336853 31.00511169 C2.08957421 35.31061371 2.07977071 39.61608129 2.06866455 43.92156982 C2.05838366 48.32596369 2.05385668 52.73036319 2.04882812 57.13476562 C2.0381453 65.75652611 2.0211065 74.37825876 2 83 C1.67 83 1.34 83 1 83 C0.67 87.95 0.34 92.9 0 98 C-0.33 98 -0.66 98 -1 98 C-1.15264473 65.31993737 -0.74513565 32.67156266 0 0 Z " fill="#00C9BF" transform="translate(680,333)"/>
<path d="M0 0 C13.33093071 3.23345979 24.13489778 10.23321562 31.85546875 21.7734375 C33.39561013 24.48864971 34.7727987 27.12888418 36 30 C36.41366821 30.90649292 36.41366821 30.90649292 36.83569336 31.83129883 C39.72149379 39.00614833 39.12687968 45.96084262 38.6875 53.5625 C38.62626953 54.85736328 38.56503906 56.15222656 38.50195312 57.48632812 C38.34977625 60.65863062 38.18208501 63.82929735 38 67 C37.67 67 37.34 67 37 67 C36.99589111 66.17910889 36.99178223 65.35821777 36.98754883 64.51245117 C36.9602807 61.41239244 36.91089746 58.31362403 36.84741211 55.21411133 C36.81331404 53.23475412 36.80381687 51.25502153 36.79492188 49.27539062 C36.62307618 41.73327423 35.7622129 36.03881347 32.1628418 29.3605957 C30.9489265 26.89631961 30.42229289 24.70357621 30 22 C29.01 22 28.02 22 27 22 C24.64276511 19.46815512 24 18.52809907 24 15 C23.34 15 22.68 15 22 15 C21.67 14.34 21.34 13.68 21 13 C20.01 13.495 20.01 13.495 19 14 C18.67 12.68 18.34 11.36 18 10 C17.34 10 16.68 10 16 10 C16 9.34 16 8.68 16 8 C14.783125 7.71125 13.56625 7.4225 12.3125 7.125 C9.07584806 6.31583702 6.06771211 5.32657821 3 4 C2.071875 3.62875 1.14375 3.2575 0.1875 2.875 C-0.534375 2.58625 -1.25625 2.2975 -2 2 C-1.34 1.34 -0.68 0.68 0 0 Z " fill="#0090E2" transform="translate(642,177)"/>
<path d="M0 0 C0.33 0 0.66 0 1 0 C1.00331015 0.59414577 1.00662029 1.18829155 1.01003075 1.80044174 C1.09124312 16.25581585 1.18332978 30.7110904 1.28752708 45.16631699 C1.33765373 52.15675416 1.38409661 59.1471796 1.421875 66.13769531 C1.45832777 72.88100615 1.50503601 79.62417402 1.55806351 86.36737823 C1.57662914 88.94301371 1.59172902 91.51867652 1.60334396 94.09435272 C1.62016906 97.69552221 1.64919565 101.29639844 1.68115234 104.89746094 C1.68331253 105.9677655 1.68547272 107.03807007 1.68769836 108.14080811 C1.69886185 109.12234863 1.71002533 110.10388916 1.7215271 111.11517334 C1.72982324 112.39277842 1.72982324 112.39277842 1.73828697 113.6961937 C2.02478588 116.218185 2.81844498 117.77572239 4 120 C4.44733527 122.59564911 4.82389989 125.13882034 5.125 127.75 C5.25455078 128.79607422 5.25455078 128.79607422 5.38671875 129.86328125 C5.59771846 131.57472332 5.79975501 133.28726629 6 135 C3.84534067 132.84534067 3.36310523 131.59950719 2.4375 128.75 C2.18871094 128.00234375 1.93992187 127.2546875 1.68359375 126.484375 C-0.15233612 119.8120813 -0.13635477 113.35615792 -0.11352539 106.48681641 C-0.11367142 105.33501892 -0.11381744 104.18322144 -0.1139679 102.996521 C-0.11327251 99.19818219 -0.10549759 95.39989272 -0.09765625 91.6015625 C-0.09579074 88.96454902 -0.09436747 86.32753519 -0.09336853 83.69052124 C-0.09026547 77.46458554 -0.08206593 71.23866748 -0.07201904 65.01273954 C-0.06082603 57.92204853 -0.05533943 50.83135665 -0.05032361 43.740659 C-0.03988244 29.16043025 -0.0223029 14.58021537 0 0 Z " fill="#00E7DB" transform="translate(321,346)"/>
<path d="M0 0 C0.66 0.99 1.32 1.98 2 3 C1.26394531 3.24234375 0.52789062 3.4846875 -0.23046875 3.734375 C-9.81115067 7.02496588 -15.24180134 10.92113819 -20 20 C-21.25067315 23.6213521 -22.20189246 27.25449531 -23 31 C-23.33 31 -23.66 31 -24 31 C-24.33 51.13 -24.66 71.26 -25 92 C-25.33 92 -25.66 92 -26 92 C-26.09317588 83.84547279 -26.16400367 75.69117249 -26.20724869 67.53624249 C-26.22801684 63.74849672 -26.25613353 59.96111837 -26.30175781 56.17358398 C-26.34560532 52.51011927 -26.36921783 48.84700523 -26.37950897 45.18329811 C-26.38683135 43.79399924 -26.40112787 42.40471693 -26.42292023 41.01556969 C-26.54273522 33.05254658 -26.04410143 26.52738008 -22.86126709 19.16926575 C-21.81549445 16.92428533 -21.81549445 16.92428533 -22 14 C-21.01 14 -20.02 14 -19 14 C-18.979375 13.4225 -18.95875 12.845 -18.9375 12.25 C-17.63374779 9.1209947 -15.63766396 8.41819348 -12.69140625 6.9296875 C-10.81434849 6.00039225 -10.81434849 6.00039225 -9 4 C-8.01 4 -7.02 4 -6 4 C-6 3.34 -6 2.68 -6 2 C-4.02 1.34 -2.04 0.68 0 0 Z " fill="#008CDF" transform="translate(366,196)"/>
<path d="M0 0 C0.33 0 0.66 0 1 0 C1.26928581 5.33347246 1.5016537 10.66690672 1.7019043 16.00341797 C1.77478662 17.81340947 1.85724095 19.62304464 1.94995117 21.43212891 C2.63211158 34.9187756 1.75922392 45.22416063 -6.5625 56.5 C-7.12066406 57.2734375 -7.67882812 58.046875 -8.25390625 58.84375 C-10.05380435 61.06644295 -11.87315992 63.08627887 -14 65 C-14.66 65 -15.32 65 -16 65 C-15.34 63.68 -14.68 62.36 -14 61 C-13.34 61 -12.68 61 -12 61 C-12 60.34 -12 59.68 -12 59 C-11.01 58.505 -11.01 58.505 -10 58 C-9.67 57.01 -9.34 56.02 -9 55 C-8.34 55 -7.68 55 -7 55 C-6.87625 54.21625 -6.7525 53.4325 -6.625 52.625 C-6 50 -6 50 -4 48 C-3.59952556 45.67724823 -3.2602896 43.34260643 -3 41 C-2.34 41 -1.68 41 -1 41 C-0.67 27.47 -0.34 13.94 0 0 Z " fill="#00D7A4" transform="translate(679,432)"/>
<path d="M0 0 C7.13840513 -0.60494959 7.13840513 -0.60494959 10.9375 2.0625 C13.42007096 5.59828288 14 7.68713322 14 12 C12.75496924 15.59675552 11.68430043 17.46365642 8.6875 19.8125 C-2.41070492 24.71635799 -17.15724773 21.78577503 -29 21 C-29 20.67 -29 20.34 -29 20 C-28.10075806 20.00785522 -28.10075806 20.00785522 -27.18334961 20.01586914 C-24.43474398 20.03681443 -21.68615522 20.04971556 -18.9375 20.0625 C-17.52307617 20.07506836 -17.52307617 20.07506836 -16.08007812 20.08789062 C-10.94367175 20.10578751 -6.07936177 19.87037657 -1 19 C0.258125 18.855625 1.51625 18.71125 2.8125 18.5625 C6.08277656 18.29953167 6.08277656 18.29953167 8 16 C8.99 16 9.98 16 11 16 C11 12.04 11 8.08 11 4 C10.34 4 9.68 4 9 4 C9 3.34 9 2.68 9 2 C6.03 1.67 3.06 1.34 0 1 C0 0.67 0 0.34 0 0 Z " fill="#00E5C0" transform="translate(593,400)"/>
<path d="M0 0 C1.14087 2.23375948 2.21051098 4.47532574 3.2265625 6.76953125 C7.10903185 15.21769779 11.32294632 21.42752054 20.25 24.8125 C21.4875 25.204375 22.725 25.59625 24 26 C25.3465266 26.63960014 26.68922893 27.289999 28 28 C27.67 28.99 27.34 29.98 27 31 C26.67 30.34 26.34 29.68 26 29 C24.3373217 28.64731066 22.66934283 28.31966139 21 28 C18.30219812 27.07075713 15.65946725 26.03674147 13 25 C13 24.34 13 23.68 13 23 C12.01 23 11.02 23 10 23 C9.67 21.68 9.34 20.36 9 19 C8.34 19 7.68 19 7 19 C6.34 17.35 5.68 15.7 5 14 C4.34 14 3.68 14 3 14 C3 13.01 3 12.02 3 11 C2.34 11 1.68 11 1 11 C0.63743142 9.5437328 0.28520207 8.08488815 -0.0625 6.625 C-0.35833984 5.40683594 -0.35833984 5.40683594 -0.66015625 4.1640625 C-1 2 -1 2 0 0 Z " fill="#00DEB1" transform="translate(342,461)"/>
<path d="M0 0 C4.85745385 0.59237242 8.66821752 1.79164031 13 4 C13.33 4.99 13.66 5.98 14 7 C16.24872836 8.96042985 18.32808966 10.66404483 21 12 C20.67 12.66 20.34 13.32 20 14 C20.66 14.33 21.32 14.66 22 15 C21.67 15.66 21.34 16.32 21 17 C21.66 17 22.32 17 23 17 C25.56687367 20.8503105 24.83288724 22.58569763 24 27 C22.93361658 24.91046492 21.92308079 22.82201253 20.9921875 20.66796875 C17.13251447 12.09841498 12.24596351 7.11284162 3.5 3.5625 C2.00598332 3.024744 0.50790455 2.4974849 -1 2 C-0.67 1.34 -0.34 0.68 0 0 Z " fill="#0092E2" transform="translate(636,197)"/>
<path d="M0 0 C0.33 0 0.66 0 1 0 C1.07533781 4.17680545 1.12914847 8.35322911 1.16479492 12.53051758 C1.17968738 13.94530137 1.20000836 15.36004067 1.22631836 16.7746582 C1.45930932 29.64398224 0.11801809 42.40796572 -6 54 C-6.99 54.495 -6.99 54.495 -8 55 C-7.80664062 54.46632813 -7.61328125 53.93265625 -7.4140625 53.3828125 C-5.63342666 48.28772578 -4.36488461 43.28460726 -3.4296875 37.96875 C-3 36 -3 36 -2 35 C-0.93590585 27.50404791 -0.69271289 19.99765887 -0.4375 12.4375 C-0.37272461 10.63829102 -0.37272461 10.63829102 -0.30664062 8.80273438 C-0.20143198 5.86858207 -0.09929117 2.9343575 0 0 Z " fill="#00C1E8" transform="translate(568,602)"/>
<path d="M0 0 C-2.52475701 2.52475701 -3.56491437 2.2751648 -7.0625 2.4375 C-13.04969157 2.87866148 -19.59871579 3.59871579 -24 8 C-25.98356483 8.71408334 -27.98315437 9.38617742 -30 10 C-30 9.01 -30 8.02 -30 7 C-19.498398 1.34939182 -11.89708455 -1.88842612 0 0 Z " fill="#0085DE" transform="translate(631,544)"/>
<path d="M0 0 C0.79341797 -0.00386719 1.58683594 -0.00773438 2.40429688 -0.01171875 C8.31086933 -0.00163067 8.31086933 -0.00163067 9.4375 1.125 C11.43708364 1.16580783 13.43795254 1.16754356 15.4375 1.125 C10.51047391 4.40968406 5.89439452 4.2829265 0.0625 4.3125 C-1.20335937 4.32667969 -2.46921875 4.34085938 -3.7734375 4.35546875 C-7.74573775 4.11385461 -10.80284042 3.35393265 -14.5625 2.125 C-13.94375 1.980625 -13.325 1.83625 -12.6875 1.6875 C-8.27175618 0.51862664 -4.66654592 -0.02285655 0 0 Z " fill="#00B8C9" transform="translate(508.5625,681.875)"/>
<path d="M0 0 C2.32852173 -0.32279968 2.32852173 -0.32279968 5.27587891 -0.2487793 C6.92736435 -0.21840828 6.92736435 -0.21840828 8.61221313 -0.18742371 C9.80494843 -0.15006607 10.99768372 -0.11270844 12.2265625 -0.07421875 C14.05349136 -0.03455742 14.05349136 -0.03455742 15.91732788 0.00590515 C19.8203703 0.09391208 23.72250763 0.20297906 27.625 0.3125 C30.26559222 0.37573319 32.90621753 0.43760006 35.546875 0.49804688 C42.03171778 0.64949242 48.51593976 0.81824715 55 1 C55 1.33 55 1.66 55 2 C26.785 2.495 26.785 2.495 -2 3 C-1.34 2.01 -0.68 1.02 0 0 Z " fill="#0095FC" transform="translate(369,195)"/>
<path d="M0 0 C2.01822917 0.29296875 4.03645833 0.5859375 6.0546875 0.87890625 C8.08140667 1.1684297 8.08140667 1.1684297 10 0 C10.99 0.66 11.98 1.32 13 2 C15.68004202 2.24047646 18.26554203 2.37273498 20.94921875 2.4140625 C21.72183548 2.43342865 22.49445221 2.4527948 23.29048157 2.4727478 C25.7560424 2.53248479 28.22165007 2.57890486 30.6875 2.625 C32.3600463 2.66318525 34.03257305 2.70223731 35.70507812 2.7421875 C39.80322647 2.83818133 43.90146688 2.92223377 48 3 C48 3.33 48 3.66 48 4 C42.61062585 4.07464507 37.22155848 4.12883434 31.83178711 4.16479492 C30.00165559 4.17979997 28.17155954 4.20021059 26.34155273 4.22631836 C23.69766442 4.26306906 21.05425508 4.27980937 18.41015625 4.29296875 C17.60353043 4.30845261 16.7969046 4.32393646 15.96583557 4.33988953 C10.16294456 4.34157501 5.38847872 3.12506144 0 1 C0 0.67 0 0.34 0 0 Z " fill="#00FED2" transform="translate(354,506)"/>
<path d="M0 0 C0.70769531 -0.00773438 1.41539062 -0.01546875 2.14453125 -0.0234375 C7.22043696 -0.00487843 11.61770376 0.8644835 16.5 2.25 C16.5 2.58 16.5 2.91 16.5 3.25 C15.69256348 3.24476318 14.88512695 3.23952637 14.05322266 3.23413086 C10.41048962 3.21340071 6.76776898 3.20035251 3.125 3.1875 C1.85398437 3.17912109 0.58296875 3.17074219 -0.7265625 3.16210938 C-1.93828125 3.15888672 -3.15 3.15566406 -4.3984375 3.15234375 C-5.51911621 3.14710693 -6.63979492 3.14187012 -7.79443359 3.13647461 C-10.46867343 3.06378534 -10.46867343 3.06378534 -12.5 4.25 C-14.625 3.3125 -14.625 3.3125 -16.5 2.25 C-10.8564732 0.64845861 -5.85360063 -0.06397378 0 0 Z " fill="#00C5CE" transform="translate(366.5,717.75)"/>
<path d="M0 0 C0.33 0 0.66 0 1 0 C0.03644647 14.78132118 0.03644647 14.78132118 -1 21 C-1.66 21 -2.32 21 -3 21 C-3 24.63 -3 28.26 -3 32 C-3.33 32 -3.66 32 -4 32 C-4.39537591 21.6762958 -4.74703768 9.49407536 0 0 Z " fill="#00A1EB" transform="translate(452,582)"/>
<path d="M0 0 C0.28875 0.639375 0.5775 1.27875 0.875 1.9375 C1.82823451 4.15206079 1.82823451 4.15206079 4 5 C4.33 6.32 4.66 7.64 5 9 C13.25 9.33 21.5 9.66 30 10 C30.33 9.34 30.66 8.68 31 8 C31 8.99 31 9.98 31 11 C21.43 11.33 11.86 11.66 2 12 C-0.25 4.125 -0.25 4.125 0 0 Z " fill="#007FD7" transform="translate(654,574)"/>
<path d="M0 0 C0.99 0 1.98 0 3 0 C3.33 0.99 3.66 1.98 4 3 C2.70513179 4.69672386 1.36639342 6.3603279 0 8 C-0.309375 8.804375 -0.61875 9.60875 -0.9375 10.4375 C-2.4062648 13.97981512 -4.38040263 16.18872477 -7 19 C-7.99 19.33 -8.98 19.66 -10 20 C-10 19.01 -10 18.02 -10 17 C-9.2575 16.278125 -8.515 15.55625 -7.75 14.8125 C-3.60310676 10.57135919 -1.28653079 5.77652324 0 0 Z " fill="#00DAA5" transform="translate(659,464)"/>
<path d="M0 0 C0 2.77996107 -0.21297929 5.42492567 -0.5 8.1875 C-0.5928125 9.08855469 -0.685625 9.98960937 -0.78125 10.91796875 C-0.88953125 11.94857422 -0.88953125 11.94857422 -1 13 C1.475 13.99 1.475 13.99 4 15 C4 15.99 4 16.98 4 18 C0.98511576 17.10368306 -0.71802222 16.32087126 -2.8125 13.9375 C-4.44065511 9.9099584 -4.25222137 6.28776332 -4 2 C-2.68 1.34 -1.36 0.68 0 0 Z " fill="#0086D6" transform="translate(377,235)"/>
<path d="M0 0 C0.66 0 1.32 0 2 0 C2 0.99 2 1.98 2 3 C-0.51478831 4.32532061 -3.03581987 5.63520231 -5.5625 6.9375 C-6.26697266 7.31068359 -6.97144531 7.68386719 -7.69726562 8.06835938 C-12.20668054 10.37501862 -15.94491389 11.58151061 -21 12 C-20.01 11.67 -19.02 11.34 -18 11 C-17.67 10.01 -17.34 9.02 -17 8 C-16.34 8 -15.68 8 -15 8 C-12.81802436 7.27363179 -10.65327792 6.49497922 -8.5 5.6875 C-6.75203125 5.04361328 -6.75203125 5.04361328 -4.96875 4.38671875 C-1.75847008 3.20007163 -1.75847008 3.20007163 0 0 Z " fill="#00E2AC" transform="translate(660,497)"/>
<path d="M0 0 C1.32 0.33 2.64 0.66 4 1 C4 1.66 4 2.32 4 3 C5.06541016 2.87431641 5.06541016 2.87431641 6.15234375 2.74609375 C7.07144531 2.64425781 7.99054687 2.54242187 8.9375 2.4375 C10.31228516 2.28087891 10.31228516 2.28087891 11.71484375 2.12109375 C12.46894531 2.08113281 13.22304688 2.04117188 14 2 C14.33 2.33 14.66 2.66 15 3 C16.68183948 3.23287008 18.3712416 3.41264166 20.0625 3.5625 C21.44115234 3.68818359 21.44115234 3.68818359 22.84765625 3.81640625 C23.91306641 3.90728516 23.91306641 3.90728516 25 4 C25 4.33 25 4.66 25 5 C5.99544419 5.3690205 5.99544419 5.3690205 -2 3 C-1.34 2.67 -0.68 2.34 0 2 C0 1.34 0 0.68 0 0 Z " fill="#00CDD1" transform="translate(618,681)"/>
<path d="M0 0 C6.31137097 1.53002933 10.04856815 6.91996226 13.37109375 12.1640625 C16.13315281 17.26765952 16.13315281 17.26765952 15.59375 20.234375 C15.3978125 20.81703125 15.201875 21.3996875 15 22 C14.74605469 21.37351562 14.49210938 20.74703125 14.23046875 20.1015625 C13.88628906 19.28429687 13.54210937 18.46703125 13.1875 17.625 C12.85105469 16.81289063 12.51460937 16.00078125 12.16796875 15.1640625 C11.05560918 12.69852542 11.05560918 12.69852542 8 11 C7.54625 10.071875 7.0925 9.14375 6.625 8.1875 C4.86877302 4.74259324 2.83050872 2.60100801 0 0 Z " fill="#009AEE" transform="translate(668,553)"/>
<path d="M0 0 C0.33 0 0.66 0 1 0 C1 2.97 1 5.94 1 9 C1.66 9 2.32 9 3 9 C3 9.66 3 10.32 3 11 C3.66 11.33 4.32 11.66 5 12 C4.67 12.66 4.34 13.32 4 14 C4.66 14 5.32 14 6 14 C7.03789581 15.64333504 8.03567924 17.31243867 9 19 C9.66 19.66 10.32 20.32 11 21 C7.46340908 20.43997584 6.04440308 19.32225676 3.8125 16.5625 C3.04873047 15.63630859 3.04873047 15.63630859 2.26953125 14.69140625 C-0.13981513 11.48141553 -0.1086192 9.34125082 -0.0625 5.375 C-0.05347656 4.37210937 -0.04445313 3.36921875 -0.03515625 2.3359375 C-0.02355469 1.56507813 -0.01195312 0.79421875 0 0 Z " fill="#01D9C1" transform="translate(432,397)"/>
<path d="M0 0 C0 4.27508626 -1.99409635 5.84170822 -4.7890625 8.921875 C-8.38325875 12.30016547 -12.4379655 15.09383523 -17 17 C-17.99 16.67 -18.98 16.34 -20 16 C-18.02 15.34 -16.04 14.68 -14 14 C-14 13.01 -14 12.02 -14 11 C-13.113125 10.773125 -12.22625 10.54625 -11.3125 10.3125 C-7.51769499 8.80889801 -5.63349146 7.08494714 -3 4 C-2.67 3.01 -2.34 2.02 -2 1 C-1.34 0.67 -0.68 0.34 0 0 Z " fill="#00D1DB" transform="translate(680,664)"/>
<path d="M0 0 C4.35465689 1.38487322 6.62027087 3.34257521 9.625 6.75 C10.38039063 7.59046875 11.13578125 8.4309375 11.9140625 9.296875 C14.08230822 12.10666159 15.66177576 14.71281832 17 18 C16.67 18.99 16.34 19.98 16 21 C15.58041016 20.1646875 15.58041016 20.1646875 15.15234375 19.3125 C11.53623806 12.4291091 7.38719341 5.21674287 0 2 C0 1.34 0 0.68 0 0 Z " fill="#01D4D1" transform="translate(401,728)"/>
<path d="M0 0 C1.13671875 1.61328125 1.13671875 1.61328125 2 4 C1.20703125 6.98046875 1.20703125 6.98046875 -0.1875 10.1875 C-0.85845703 11.78658203 -0.85845703 11.78658203 -1.54296875 13.41796875 C-3 16 -3 16 -6 17 C-6 17.66 -6 18.32 -6 19 C-6.66 18.67 -7.32 18.34 -8 18 C-7.59007812 17.20335937 -7.18015625 16.40671875 -6.7578125 15.5859375 C-6.21898437 14.52632812 -5.68015625 13.46671875 -5.125 12.375 C-4.59132813 11.33085938 -4.05765625 10.28671875 -3.5078125 9.2109375 C-2.08545709 6.18198375 -0.9877999 3.19356666 0 0 Z " fill="#00B6DE" transform="translate(538,632)"/>
<path d="M0 0 C2.00047767 3.0007165 2.83083157 4.44746291 3 8 C1.375 10.5 1.375 10.5 -1 13 C-2.2684375 14.3921875 -2.2684375 14.3921875 -3.5625 15.8125 C-6 18 -6 18 -9 18 C-8.02546875 16.93072266 -8.02546875 16.93072266 -7.03125 15.83984375 C-6.1959375 14.88207031 -5.360625 13.92429687 -4.5 12.9375 C-3.6646875 11.99777344 -2.829375 11.05804688 -1.96875 10.08984375 C0.36630953 6.42509755 0.38334768 4.26474294 0 0 Z " fill="#00CBCE" transform="translate(455,362)"/>
<path d="M0 0 C5.94 0 11.88 0 18 0 C13.46532336 3.40100748 12.2087218 3.33913116 6.75 3.1875 C5.48671875 3.16042969 4.2234375 3.13335937 2.921875 3.10546875 C1.95765625 3.07066406 0.9934375 3.03585937 0 3 C0 2.01 0 1.02 0 0 Z " fill="#0091CF" transform="translate(510,270)"/>
<path d="M0 0 C6.27 0 12.54 0 19 0 C19 0.33 19 0.66 19 1 C17.98679687 1.13277344 16.97359375 1.26554688 15.9296875 1.40234375 C14.57811796 1.58067584 13.22655586 1.75906425 11.875 1.9375 C11.20984375 2.02451172 10.5446875 2.11152344 9.859375 2.20117188 C5.89169812 2.72630558 1.94373002 3.31814014 -2 4 C-1.34 2.68 -0.68 1.36 0 0 Z " fill="#0098ED" transform="translate(496,568)"/>
<path d="M0 0 C2.87354273 1.99179811 3.05248778 3.27254347 3.73046875 6.79296875 C3.89601295 8.25637947 4.04793087 9.72138394 4.1875 11.1875 C4.26935547 11.93708984 4.35121094 12.68667969 4.43554688 13.45898438 C4.63540784 15.30475918 4.81926538 17.15225433 5 19 C0.56615134 14.56615134 -0.49337382 7.07951421 -1 1 C-0.67 0.67 -0.34 0.34 0 0 Z " fill="#00DEB1" transform="translate(322,462)"/>
<path d="M0 0 C-1.1446875 0.680625 -1.1446875 0.680625 -2.3125 1.375 C-4.23632814 2.53824492 -6.12941224 3.7529415 -8 5 C-9.98799818 5.70164642 -11.98698517 6.37372872 -14 7 C-14 6.01 -14 5.02 -14 4 C-12.42466914 3.13116294 -10.83935491 2.28040932 -9.25 1.4375 C-8.36828125 0.96183594 -7.4865625 0.48617187 -6.578125 -0.00390625 C-3.79298812 -1.07998186 -2.73019786 -1.06528748 0 0 Z " fill="#008EE8" transform="translate(615,547)"/>
<path d="M0 0 C7.13840513 -0.60494959 7.13840513 -0.60494959 10.9375 2.0625 C13.32870991 5.4681626 13.7579806 7.88567014 14 12 C13.34 12 12.68 12 12 12 C11.67 12.66 11.34 13.32 11 14 C11 10.7 11 7.4 11 4 C10.34 4 9.68 4 9 4 C9 3.34 9 2.68 9 2 C6.03 1.67 3.06 1.34 0 1 C0 0.67 0 0.34 0 0 Z " fill="#01CFB3" transform="translate(593,400)"/>
<path d="M0 0 C0.66 0.66 1.32 1.32 2 2 C-2.40086567 5.12319499 -6.79459302 6.03603575 -12 7 C-12 6.01 -12 5.02 -12 4 C-10.7625 3.71125 -9.525 3.4225 -8.25 3.125 C-5.27551258 2.38665206 -2.666144 1.55525067 0 0 Z " fill="#00D39F" transform="translate(645,484)"/>
<path d="M0 0 C0.99 0 1.98 0 3 0 C3 0.99 3 1.98 3 3 C3.928125 3.2165625 3.928125 3.2165625 4.875 3.4375 C7 4 7 4 9 5 C9 5.66 9 6.32 9 7 C10.98 7.66 12.96 8.32 15 9 C12 10 12 10 9.58984375 8.92578125 C8.71457031 8.39339844 7.83929688 7.86101562 6.9375 7.3125 C6.05964844 6.79300781 5.18179687 6.27351563 4.27734375 5.73828125 C1.93631746 3.95139154 1.04613537 2.71285951 0 0 Z " fill="#01E5B4" transform="translate(339,496)"/>
<path d="M0 0 C0.5775 0.226875 1.155 0.45375 1.75 0.6875 C0.821875 1.1 -0.10625 1.5125 -1.0625 1.9375 C-5.71973937 4.49441573 -6.83917868 6.39016952 -8.4375 11.4375 C-8.705625 12.51 -8.97375 13.5825 -9.25 14.6875 C-9.58 14.6875 -9.91 14.6875 -10.25 14.6875 C-10.75537432 9.38106959 -9.55655751 6.82069688 -6.25 2.6875 C-3.03996865 -0.42221787 -3.03996865 -0.42221787 0 0 Z " fill="#00D4CB" transform="translate(665.25,706.3125)"/>
<path d="M0 0 C0.33 0.66 0.66 1.32 1 2 C1.66 2 2.32 2 3 2 C3.34274406 3.66475686 3.67364302 5.33195323 4 7 C4.309375 8.5159375 4.309375 8.5159375 4.625 10.0625 C4.98330999 12.86926161 4.76414191 14.34831353 4 17 C3.32635339 14.91891315 2.66133202 12.8350329 2 10.75 C1.62875 9.58984375 1.2575 8.4296875 0.875 7.234375 C0 4 0 4 0 0 Z " fill="#00AAEB" transform="translate(428,267)"/>
<path d="M0 0 C5.66442374 0.36504064 10.00703705 1.0554321 15 4 C15 4.33 15 4.66 15 5 C8.58847078 5.36989592 8.58847078 5.36989592 5.8125 3.625 C4.9153125 2.820625 4.9153125 2.820625 4 2 C2.67809603 1.31094839 1.345905 0.64090714 0 0 Z " fill="#01CFCD" transform="translate(505,723)"/>
<path d="M0 0 C4.04161955 1.34484714 6.38678154 3.0505162 9.3125 6.125 C10.00988281 6.84945312 10.70726562 7.57390625 11.42578125 8.3203125 C11.94527344 8.87460937 12.46476563 9.42890625 13 10 C12.67 10.66 12.34 11.32 12 12 C8 8 4 4 0 0 Z " fill="#0097E8" transform="translate(544,554)"/>
<path d="M0 0 C2.01822917 0.29296875 4.03645833 0.5859375 6.0546875 0.87890625 C8.08140667 1.1684297 8.08140667 1.1684297 10 0 C10.99 0.99 11.98 1.98 13 3 C9.57056481 4.18771723 7.62215325 3.80226223 4.25 2.5625 C3.45078125 2.27503906 2.6515625 1.98757813 1.828125 1.69140625 C1.22484375 1.46324219 0.6215625 1.23507812 0 1 C0 0.67 0 0.34 0 0 Z " fill="#00E0B0" transform="translate(354,506)"/>
<path d="M0 0 C3.2645028 3.2645028 3.93236055 7.41047299 4.125 11.9375 C4.08375 12.618125 4.0425 13.29875 4 14 C2.5 12.875 2.5 12.875 1 11 C0.8125 7.8125 0.8125 7.8125 1 5 C0.34 4.67 -0.32 4.34 -1 4 C-0.67 2.68 -0.34 1.36 0 0 Z " fill="#00B3E1" transform="translate(457,299)"/>
<path d="M0 0 C0.99 0.495 0.99 0.495 2 1 C2 1.66 2 2.32 2 3 C2.66 3 3.32 3 4 3 C4 3.66 4 4.32 4 5 C4.66 5 5.32 5 6 5 C6.33 6.98 6.66 8.96 7 11 C3.17330957 7.57611908 1.27721526 4.99275057 0 0 Z " fill="#00C4DB" transform="translate(584,659)"/>
<path d="M0 0 C1.64956143 2.96921058 2.66052758 5.60527583 3 9 C2.34 10.32 1.68 11.64 1 13 C0.01 9.37 -0.98 5.74 -2 2 C-1.34 2 -0.68 2 0 2 C0 1.34 0 0.68 0 0 Z " fill="#0095D6" transform="translate(446,256)"/>
<path d="M0 0 C1.98 0.99 1.98 0.99 4 2 C3.67 2.99 3.34 3.98 3 5 C3.66 5 4.32 5 5 5 C5 5.99 5 6.98 5 8 C5.99 8.33 6.98 8.66 8 9 C7.34 9.66 6.68 10.32 6 11 C4.9944239 9.54550599 3.99569565 8.08627557 3 6.625 C2.443125 5.81289063 1.88625 5.00078125 1.3125 4.1640625 C0 2 0 2 0 0 Z " fill="#00E3B6" transform="translate(327,481)"/>
<path d="M0 0 C2.66666667 2.66666667 5.33333333 5.33333333 8 8 C4 8 4 8 1.75 6.25 C0 4 0 4 0 0 Z " fill="#0198E6" transform="translate(374,244)"/>
<path d="M0 0 C0.28875 0.639375 0.5775 1.27875 0.875 1.9375 C1.82823451 4.15206079 1.82823451 4.15206079 4 5 C4 6.98 4 8.96 4 11 C3.01 11.495 3.01 11.495 2 12 C0.70756464 7.8803623 -0.26252625 4.33168317 0 0 Z " fill="#008CDB" transform="translate(654,574)"/>
<path d="M0 0 C1.9078584 3.1749094 2.1609041 5.10585211 1.625 8.75 C1.51414062 9.54921875 1.40328125 10.3484375 1.2890625 11.171875 C1.19367187 11.77515625 1.09828125 12.3784375 1 13 C-1.30143236 9.54785147 -1.13833854 8.76520676 -0.625 4.8125 C-0.51414062 3.91144531 -0.40328125 3.01039063 -0.2890625 2.08203125 C-0.19367187 1.39496094 -0.09828125 0.70789063 0 0 Z " fill="#009FCC" transform="translate(629,286)"/>
<path d="M0 0 C0 0.66 0 1.32 0 2 C-2.64 2.66 -5.28 3.32 -8 4 C-7 1 -7 1 -5.125 -0.25 C-3 -1 -3 -1 0 0 Z " fill="#0088E6" transform="translate(485,549)"/>
<path d="M0 0 C1.65 0 3.3 0 5 0 C5.33 0.99 5.66 1.98 6 3 C7.29355827 4.37195574 8.62298702 5.71182656 10 7 C6.433255 7 5.89456323 6.36308045 3.3125 4.0625 C2.68988281 3.51722656 2.06726563 2.97195312 1.42578125 2.41015625 C0.95527344 1.94480469 0.48476563 1.47945312 0 1 C0 0.67 0 0.34 0 0 Z " fill="#019BEC" transform="translate(644,201)"/>
<path d="M0 0 C-0.75 2.4375 -0.75 2.4375 -2 5 C-4.125 5.8125 -4.125 5.8125 -6 6 C-3.84615385 0 -3.84615385 0 0 0 Z " fill="#0089DF" transform="translate(592,565)"/>
<path d="M0 0 C1.32 0.33 2.64 0.66 4 1 C4.33 3.97 4.66 6.94 5 10 C3 7 3 7 3 3 C2.01 2.67 1.02 2.34 0 2 C0 1.34 0 0.68 0 0 Z " fill="#0095EF" transform="translate(424,573)"/>
<path d="M0 0 C1.9451 2.91765 2.45276317 4.62537285 3 8 C2.01 8 1.02 8 0 8 C-1.125 5.6875 -1.125 5.6875 -2 3 C-1.34 2.01 -0.68 1.02 0 0 Z " fill="#008FD8" transform="translate(443,246)"/>
<path d="M0 0 C3.96 0.33 7.92 0.66 12 1 C8.32003497 3.45331002 6.34586828 3.39507893 2 3 C1.34 2.01 0.68 1.02 0 0 Z " fill="#00A4C9" transform="translate(501,661)"/>
<path d="M0 0 C2.17766075 4.35532149 2.03039555 5.46625958 1 10 C0.01 9.67 -0.98 9.34 -2 9 C-1.34 6.03 -0.68 3.06 0 0 Z " fill="#00C6DE" transform="translate(656,643)"/>
<path d="M0 0 C3.48539917 0.64544429 6.02819057 2.10134397 9 4 C6.92446352 4.5534764 5.15634036 5 3 5 C3 4.01 3 3.02 3 2 C2.01 1.67 1.02 1.34 0 1 C0 0.67 0 0.34 0 0 Z " fill="#00B2E7" transform="translate(661,609)"/>
<path d="M0 0 C3.63 0.33 7.26 0.66 11 1 C11 1.33 11 1.66 11 2 C7.7 2.33 4.4 2.66 1 3 C0.67 2.01 0.34 1.02 0 0 Z " fill="#01B3C5" transform="translate(623,659)"/>
<path d="M0 0 C0.99 0 1.98 0 3 0 C3 0.66 3 1.32 3 2 C3.66 2.33 4.32 2.66 5 3 C5 4.65 5 6.3 5 8 C2.74754119 5.31158141 1.11786042 3.35358125 0 0 Z " fill="#00B4DB" transform="translate(456,656)"/>
<path d="M0 0 C2.97 0.495 2.97 0.495 6 1 C5.67 2.32 5.34 3.64 5 5 C4.67 4.34 4.34 3.68 4 3 C1.47266765 2.34444881 1.47266765 2.34444881 -1 2 C-0.67 1.34 -0.34 0.68 0 0 Z " fill="#00D1A3" transform="translate(364,487)"/>
</svg>
